G04 ================== begin FILE IDENTIFICATION RECORD ==================*
G04 Layout Name:  esp8266-iot-pcb.brd*
G04 Film Name:    BOTTOM*
G04 File Format:  Gerber RS274X*
G04 File Origin:  Cadence Allegro -unreleased*
G04 Origin Date:  Tue Nov 19 02:41:02 2019*
G04 *
G04 Layer:  ETCH/BOTTOM*
G04 Layer:  PIN/BOTTOM*
G04 Layer:  VIA CLASS/BOTTOM*
G04 Layer:  BOARD GEOMETRY/OUTLINE*
G04 Layer:  MANUFACTURING/PHOTOPLOT_OUTLINE*
G04 *
G04 Offset:    (0.00 0.00)*
G04 Mirror:    No*
G04 Mode:      Positive*
G04 Rotation:  0*
G04 FullContactRelief:  No*
G04 UndefLineWidth:     6.00*
G04 ================== end FILE IDENTIFICATION RECORD ====================*
%FSLAX55Y55*MOIN*%
%IR0*IPPOS*OFA0.00000B0.00000*MIA0B0*SFA1.00000B1.00000*%
%ADD11C,.024*%
%ADD14C,.02362*%
%ADD15C,.05906*%
%ADD12C,.06299*%
%ADD13R,.06299X.06299*%
%ADD10C,.23622*%
%ADD16C,.01*%
%ADD17C,.02*%
%ADD18C,.03*%
%ADD19C,.04*%
%ADD20C,.015*%
%ADD21C,.006*%
G75*
%LPD*%
G75*
G36*
G01X97295Y119998D02*
X98446D01*
G02X99330Y119632I0J-1250D01*
G01X114632Y104330D01*
G02X114998Y103446I-884J-884D01*
G01Y85823D01*
X114679Y85255D01*
X114399Y85084D01*
G03X111545Y80000I3101J-5084D01*
G03X112923Y76190I5956J0D01*
G02X113212Y75391I-961J-799D01*
G01Y74609D01*
G02X112923Y73810I-1250J0D01*
G03X111545Y70000I4578J-3810D01*
G03X111713Y68597I5955J1D01*
G01X111790Y68279D01*
X111613Y67651D01*
X87208Y43246D01*
G02X86324Y42880I-884J884D01*
G01X68596D01*
X68253Y42980D01*
X68102Y43076D01*
G03X66378Y43580I-1724J-2697D01*
G03Y37176I0J-3202D01*
G03X68102Y37680I0J3201D01*
G01X68253Y37776D01*
X68596Y37876D01*
X87878D01*
G03X89647Y38609I0J2501D01*
G01X108472Y57434D01*
G02X109510Y57791I884J-883D01*
G01X111755Y57512D01*
X112238Y57197D01*
X112387Y56948D01*
G03X113418Y55664I5114J3051D01*
G01X113579Y55512D01*
X113777Y55118D01*
X114013Y53076D01*
X113910Y52647D01*
X113787Y52462D01*
G03X113045Y50001I3713J-2462D01*
G01Y49752D01*
X112855Y49293D01*
X111429Y47868D01*
G02X110545Y47502I-884J884D01*
G01X107705D01*
G03X105229Y46476I0J-3501D01*
G01X94024Y35271D01*
G03X92998Y32795I2475J-2476D01*
G03X94435Y29967I3501J0D01*
G01X94657Y29805D01*
X94923Y29328D01*
X95091Y27161D01*
G02X94729Y26180I-1246J-97D01*
G01X91916Y23368D01*
G02X91032Y23002I-884J884D01*
G01X51000D01*
G03X48524Y21976I0J-3501D01*
G01X41340Y14792D01*
X40819Y14603D01*
X40542Y14627D01*
G03X40000Y14651I-543J-6127D01*
G03X36019Y13189I0J-6151D01*
G02X35275Y12893I-810J952D01*
G01X34467Y12851D01*
G02X33833Y12986I-66J1248D01*
G03X33150Y13151I-684J-1336D01*
G01X29049D01*
X28321Y13861D01*
X28308Y14370D01*
G03X13500Y28813I-14808J-370D01*
G03X5774Y26639I-1J-14813D01*
G01X5485Y26462D01*
X4806Y26449D01*
X2609Y27681D01*
G02X1970Y28772I611J1090D01*
G01Y30750D01*
G02X3220Y32000I1250J0D01*
G01X31250D01*
G03X32500Y33250I0J1250D01*
G01Y34799D01*
G02X32857Y35674I1250J0D01*
G01X34253Y37100D01*
X34702Y37294D01*
X34948Y37299D01*
G03X36306Y37632I-65J3201D01*
G02X36862Y37762I555J-1120D01*
G01X37520D01*
G02X38076Y37632I1J-1250D01*
G03X39500Y37298I1424J2869D01*
G03X42702Y40500I0J3202D01*
G03X42198Y42224I-3201J0D01*
G01X42102Y42375D01*
X42002Y42718D01*
Y98446D01*
G02X42368Y99330I1250J0D01*
G01X46769Y103731D01*
G03X47502Y105500I-1768J1769D01*
G01Y108849D01*
G02X47868Y109733I1250J0D01*
G01X49293Y111159D01*
X49752Y111349D01*
X50001D01*
G03X53836Y112692I-1J6151D01*
G02X54616Y112965I780J-977D01*
G01X55384D01*
G02X56164Y112692I0J-1250D01*
G03X63836I3836J4807D01*
G02X64616Y112965I780J-977D01*
G01X65384D01*
G02X66164Y112692I0J-1250D01*
G03X73836I3836J4807D01*
G02X74616Y112965I780J-977D01*
G01X75384D01*
G02X76164Y112692I0J-1250D01*
G03X83836I3836J4807D01*
G02X84616Y112965I780J-977D01*
G01X85384D01*
G02X86164Y112692I0J-1250D01*
G03X90000Y111349I3836J4807D01*
G03X96151Y117500I0J6151D01*
G03X96063Y118538I-6151J1D01*
G01X96045Y118642D01*
Y118748D01*
G02X97295Y119998I1250J0D01*
G37*
G36*
G01X1970Y97250D02*
Y129546D01*
G02X2627Y130647I1250J1D01*
G01X4870Y131854D01*
X5558Y131823D01*
X5846Y131633D01*
G03X13673Y129191I8153J12367D01*
G01X14049Y129182D01*
X14666Y128756D01*
X15662Y126273D01*
G02X15386Y124923I-1160J-466D01*
G01X13231Y122769D01*
G03X13078Y122601I1771J-1767D01*
G01X12900Y122387D01*
X12396Y122151D01*
X6850D01*
G03X5349Y120650I0J-1502D01*
G01Y114350D01*
G03X6850Y112849I1501J1D01*
G01X11750D01*
X12462Y112210D01*
X12513Y111733D01*
G03X13231Y110231I2487J266D01*
G01X25329Y98133D01*
G02X25600Y96771I-884J-884D01*
G01X25455Y96421D01*
X24824Y96000D01*
X3220D01*
G02X1970Y97250I0J1250D01*
G37*
G36*
G01X28783Y155511D02*
X34334D01*
G02X35584Y154261I0J-1250D01*
G01Y153997D01*
X35477Y153756D01*
G03X35349Y153150I1373J-607D01*
G01Y146850D01*
G03X36850Y145349I1502J1D01*
G01X43150D01*
G03X43833Y145514I-1J1501D01*
G02X44467Y145649I568J-1113D01*
G01X45275Y145607D01*
G02X46019Y145311I-66J-1248D01*
G03X50000Y143849I3981J4689D01*
G03X53836Y145192I0J6150D01*
G02X54616Y145465I780J-977D01*
G01X55384D01*
G02X56164Y145192I0J-1250D01*
G03X60000Y143849I3836J4807D01*
G03X64716Y146051I0J6151D01*
G02X65674Y146498I958J-803D01*
G01X69160D01*
G02X70187Y145961I0J-1250D01*
G01X71533Y144019D01*
X71609Y143411D01*
X71501Y143122D01*
G03X71373Y142689I2999J-1122D01*
G01X71334Y142514D01*
X71163Y142201D01*
X69330Y140368D01*
G02X68446Y140002I-884J884D01*
G01X31500D01*
G03X31374Y139998I16J-2501D01*
G01X31102Y139985D01*
X30599Y140183D01*
X28914Y141932D01*
X28733Y142442D01*
X28757Y142712D01*
G03X28813Y144000I-14757J1287D01*
G03X26648Y151710I-14813J-1D01*
G01X26472Y152000D01*
X26460Y152676D01*
X27693Y154873D01*
G02X28783Y155511I1090J-612D01*
G37*
G36*
G01X79840Y146498D02*
X91532D01*
G02X92416Y146132I0J-1250D01*
G01X95814Y142734D01*
G02Y140966I-884J-884D01*
G01X95716Y140868D01*
G02X94832Y140502I-884J884D01*
G01X87500D01*
G03X85024Y139476I0J-3501D01*
G01X82566Y137018D01*
G02X81682Y136652I-884J884D01*
G01X79439D01*
G02X78357Y137276I0J1250D01*
G01X77106Y139441D01*
Y140110D01*
X77274Y140400D01*
G03X77702Y142000I-2774J1599D01*
G03X77499Y143122I-3202J0D01*
G01X77391Y143411D01*
X77467Y144019D01*
X78813Y145961D01*
G02X79840Y146498I1027J-713D01*
G37*
G36*
G01X113468Y34498D02*
X116151D01*
G02X117306Y33727I0J-1250D01*
G01X117451Y33377D01*
X117303Y32633D01*
X115865Y31195D01*
G03X115498Y30311I883J-885D01*
G01Y24189D01*
G03X115865Y23305I1250J1D01*
G01X117805Y21365D01*
G03X118689Y20998I885J883D01*
G01X119300D01*
G02X120130Y20684I2J-1250D01*
G01X121542Y19431D01*
X121755Y19025D01*
X121782Y18797D01*
G03X124744Y16171I2962J357D01*
G03X126375Y16656I1J2983D01*
G01X126556Y16774D01*
X126973Y16875D01*
X128755Y16691D01*
G02X129510Y16331I-130J-1243D01*
G01X138671Y7171D01*
G03X141500Y5998I2830J2828D01*
G01X162285D01*
G02X163166Y5635I0J-1250D01*
G03X165034Y4365I4334J4365D01*
G01X165376Y4215D01*
X165783Y3593D01*
Y3220D01*
G02X164533Y1970I-1250J0D01*
G01X97655D01*
G02X96585Y2574I0J1250D01*
G01X95309Y4688D01*
X95290Y5344D01*
X95443Y5635D01*
G03X96151Y8500I-5443J2865D01*
G03X94455Y12741I-6151J0D01*
G01X94263Y12943D01*
X94086Y13472D01*
X94377Y15937D01*
X94671Y16410D01*
X94905Y16562D01*
G03X95476Y17024I-1905J2938D01*
G01X112584Y34132D01*
G02X113468Y34498I884J-884D01*
G37*
G36*
G01X95602Y155511D02*
X207534D01*
G02X208634Y154854I0J-1250D01*
G01X209842Y152614D01*
X209812Y151926D01*
X209622Y151638D01*
G03X207187Y143500I12378J-8137D01*
G03X222000Y128687I14813J0D01*
G03X230343Y131260I0J14813D01*
G01X230631Y131456D01*
X231323Y131495D01*
X233585Y130299D01*
G02X234251Y129194I-584J-1105D01*
G01Y28634D01*
G02X233604Y27539I-1250J0D01*
G01X231386Y26317D01*
X230705Y26338D01*
X230415Y26521D01*
G03X222500Y28813I-7915J-12520D01*
G03X207687Y14000I0J-14813D01*
G03X210133Y5846I14814J0D01*
G01X210323Y5558D01*
X210354Y4870D01*
X209147Y2627D01*
G02X208046Y1970I-1100J593D01*
G01X195609D01*
G02X194551Y2554I0J1250D01*
G01X193253Y4618D01*
X193216Y5261D01*
X193355Y5552D01*
G03X193651Y6850I-2705J1300D01*
G01Y13150D01*
G03X192133Y15758I-3001J-1D01*
G01X191840Y15926D01*
X191502Y16507D01*
Y24000D01*
G03X190329Y26829I-4001J-1D01*
G01X173794Y43365D01*
G02X173523Y44727I884J884D01*
G01X173668Y45077D01*
X174298Y45498D01*
X188500D01*
G03X190976Y46524I0J3501D01*
G01X213476Y69024D01*
G03X214502Y71500I-2475J2476D01*
G03X211000Y75002I-3502J0D01*
G03X208524Y73976I0J-3501D01*
G01X187416Y52868D01*
G02X186532Y52502I-884J884D01*
G01X147968D01*
G02X147084Y52868I0J1250D01*
G01X137476Y62476D01*
G03X135000Y63502I-2476J-2475D01*
G01X122916D01*
G02X121977Y63927I0J1250D01*
G03X121788Y64133I-4481J-3922D01*
G01Y65391D01*
G02X122077Y66190I1250J0D01*
G03Y73810I-4578J3810D01*
G02X121788Y74609I961J799D01*
G01Y75391D01*
G02X122077Y76190I1250J0D01*
G03X123455Y80000I-4578J3810D01*
G03X120601Y85084I-5955J0D01*
G01X120321Y85255D01*
X120002Y85823D01*
Y100944D01*
G02X120773Y102098I1250J0D01*
G01X121123Y102243D01*
X121867Y102095D01*
X133731Y90231D01*
G03X135500Y89498I1769J1768D01*
G01X170446D01*
G02X171330Y89132I0J-1250D01*
G01X176231Y84231D01*
G03X178000Y83498I1769J1768D01*
G01X206000D01*
G03X207769Y84231I0J2501D01*
G01X223311Y99773D01*
X223624Y99944D01*
X223799Y99983D01*
G03X226312Y103110I-689J3127D01*
G03X223110Y106312I-3202J0D01*
G03X219983Y103799I0J-3202D01*
G01X219944Y103624D01*
X219773Y103311D01*
X205330Y88868D01*
G02X204446Y88502I-884J884D01*
G01X188931D01*
X188233Y89090D01*
X188156Y89540D01*
G03X185689Y92127I-3156J-540D01*
G01X185514Y92166D01*
X185201Y92337D01*
X177441Y100097D01*
G03X175672Y100830I-1769J-1768D01*
G01X139726D01*
G02X138842Y101196I0J1250D01*
G01X109269Y130769D01*
G03X107500Y131502I-1769J-1768D01*
G01X98928D01*
G02X97678Y132752I0J1250D01*
G01Y133106D01*
X98050Y133710D01*
X98368Y133869D01*
G03X99276Y134524I-1568J3131D01*
G01X102734Y137982D01*
G02X103618Y138348I884J-884D01*
G01X159000D01*
G03Y145352I0J3502D01*
G01X103618D01*
G02X102734Y145718I0J1250D01*
G01X95976Y152476D01*
G03X95049Y153140I-2475J-2477D01*
G01X94729Y153298D01*
X94352Y153904D01*
Y154261D01*
G02X95602Y155511I1250J0D01*
G37*
G36*
G01X149768Y36998D02*
X168325D01*
G02X169209Y36632I0J-1250D01*
G01X183132Y22709D01*
G02X183498Y21825I-884J-884D01*
G01Y16507D01*
X183160Y15926D01*
X182867Y15758D01*
G03X182552Y15552I1482J-2610D01*
G02X181919Y15308I-749J1001D01*
G01X181186Y15239D01*
G02X180466Y15389I-116J1245D01*
G03X177500Y16151I-2965J-5389D01*
G03X173664Y14808I0J-6150D01*
G02X172884Y14535I-780J977D01*
G01X172116D01*
G02X171336Y14808I0J1250D01*
G03X167500Y16151I-3836J-4807D01*
G03X163166Y14365I0J-6152D01*
G02X162285Y14002I-881J887D01*
G01X143675D01*
G02X142791Y14368I0J1250D01*
G01X142220Y14939D01*
G02Y16707I884J884D01*
G01X142273Y16760D01*
X142333Y16807D01*
G03X143475Y19154I-1841J2347D01*
G03X140492Y22137I-2983J0D01*
G03X138687Y21529I0J-2983D01*
G01X138507Y21392D01*
X138073Y21262D01*
X136206Y21389D01*
G02X135407Y21752I85J1247D01*
G01X130368Y26791D01*
G02X130002Y27675I884J884D01*
G01Y29811D01*
G03X129635Y30695I-1250J-1D01*
G01X127966Y32365D01*
G02X127695Y33727I884J884D01*
G01X127840Y34077D01*
X128470Y34498D01*
X145300D01*
G03X147776Y35524I0J3501D01*
G01X148884Y36632D01*
G02X149768Y36998I884J-884D01*
G37*
G36*
G01X117500Y30000D02*
X118500Y31000D01*
X126500D01*
X128000Y29500D01*
Y24500D01*
X126500Y23000D01*
X119000D01*
X117500Y24500D01*
Y30000D01*
G37*
G36*
G01X122916Y56498D02*
X133032D01*
G02X133916Y56132I0J-1250D01*
G01X140232Y49816D01*
G02Y48048I-884J-884D01*
G01X140052Y47868D01*
G02X139168Y47502I-884J884D01*
G01X124455D01*
G02X123571Y47868I0J1250D01*
G01X122145Y49293D01*
X121955Y49752D01*
Y50001D01*
G03X121213Y52462I-4455J-1D01*
G01X121090Y52647D01*
X120987Y53076D01*
X121223Y55118D01*
X121421Y55512D01*
X121582Y55664D01*
G03X121977Y56073I-4081J4337D01*
G02X122916Y56498I939J-825D01*
G37*
G54D10*
X13500Y14000D03*
X14000Y144000D03*
X222500Y14000D03*
X222000Y143500D03*
G54D20*
G01X123000Y54500D02*
X119500D01*
X117500Y52500D01*
G01D02*
Y50000D01*
G01X111500Y54500D02*
X115500D01*
X117500Y52500D01*
G54D11*
X19000Y29000D03*
X8000Y30500D03*
X11000Y101500D03*
X5500Y107000D03*
X21500Y98000D03*
X10000Y122902D03*
X4098Y117500D03*
X10000Y112098D03*
X5000Y131500D03*
X35000Y22000D03*
X34882Y40500D03*
X39500D03*
X47500Y54500D03*
X26000Y27000D03*
X47500Y83000D03*
Y73000D03*
Y63000D03*
X45000Y123000D03*
X53000Y133150D03*
X35000Y126000D03*
X44500Y129000D03*
X66378Y40378D03*
X76000Y54500D03*
X60000Y48000D03*
X77500Y70000D03*
X64500Y78500D03*
X67000Y59500D03*
X60500Y66500D03*
X77000Y84500D03*
X75650Y133150D03*
X74500Y142000D03*
X69500Y145000D03*
X65500Y142500D03*
X82000D03*
X103000Y18000D03*
X104000Y4500D03*
X96500Y32795D03*
X83000Y50500D03*
X106500Y49500D03*
X110000Y54000D03*
X86500Y79000D03*
X86000Y62500D03*
X107500Y77500D03*
X95000Y95000D03*
X90000Y102500D03*
X103000Y102000D03*
X106500Y94000D03*
X96000Y109000D03*
X93500Y133150D03*
X101650Y141850D03*
X86000Y142000D03*
X112000Y20500D03*
X125000Y26500D03*
X121000D03*
X137736Y30000D03*
X129000Y53500D03*
X124000D03*
X133000Y51000D03*
X127500Y49500D03*
X129000Y69000D03*
X133500Y78000D03*
X128500Y83000D03*
X127500Y90000D03*
X121500Y100000D03*
X118000Y130500D03*
X112000Y132500D03*
X135500Y112500D03*
X129000Y117000D03*
Y125000D03*
X134000Y129000D03*
X142000Y22500D03*
X162500Y19500D03*
X156500Y4000D03*
X161500D03*
X153500Y23500D03*
X147500Y49000D03*
X156500D03*
X158500Y54055D03*
X158000Y32000D03*
X148500Y34000D03*
X152500Y29000D03*
X141500Y31500D03*
X148300Y41000D03*
X156500D03*
X152500Y60500D03*
X165295Y59205D03*
X146500Y66000D03*
X148000Y73000D03*
X145500Y105000D03*
X142000Y108000D03*
X140000Y84000D03*
X156500Y87500D03*
X162000D03*
X149000Y88000D03*
X140000Y131500D03*
X148000Y132000D03*
X161000Y131500D03*
X165500Y113500D03*
X159000Y141850D03*
X145000Y147500D03*
X176500Y26000D03*
X168500Y24500D03*
X179000Y20000D03*
X171945Y54055D03*
X190000Y31000D03*
X183500Y62000D03*
X195000Y64000D03*
X180000Y57000D03*
X173000Y63000D03*
X193500Y95000D03*
X190000Y89000D03*
Y101500D03*
X172000Y105000D03*
X171500Y109000D03*
X194500Y108500D03*
X180000Y89000D03*
X185000D03*
X174000Y132000D03*
X185000Y126500D03*
Y113000D03*
X193500Y116000D03*
X192500Y137500D03*
X178500Y112000D03*
X198500Y5000D03*
X204500Y14000D03*
X223890Y46890D03*
X202500Y54500D03*
X202000Y43500D03*
X220500Y39500D03*
X200000Y29500D03*
X210500Y34000D03*
X211000Y71500D03*
X205000Y83000D03*
X210500Y78500D03*
X197500Y81500D03*
X214000Y57000D03*
X223110Y103110D03*
X202500Y100500D03*
X203500Y93500D03*
X214500Y85000D03*
X216500Y89000D03*
X209500Y99000D03*
X218500Y114000D03*
X198000Y131000D03*
X203000Y147500D03*
X196339Y152500D03*
X232000Y31500D03*
X227500Y42807D03*
X231500Y47000D03*
X230000Y116000D03*
G54D21*
G01X9843Y0D02*
X226378D01*
G03X236220Y9843I0J9842D01*
G01Y147638D01*
G03X226378Y157480I-9842J0D01*
G01X9843D01*
G03X0Y147638I-1J-9842D01*
G01Y9843D01*
G03X9843Y0I9843J0D01*
G54D12*
X20000Y117500D03*
X50000Y8500D03*
X40000D03*
X50000Y117500D03*
X40000D03*
X30000D03*
X50000Y150000D03*
X80000Y8500D03*
X70000D03*
X60000D03*
X80000Y117500D03*
X70000D03*
X60000D03*
Y150000D03*
X90000Y8500D03*
Y117500D03*
X167500Y10000D03*
X177500D03*
G54D13*
X10000Y117500D03*
X30000Y8500D03*
X40000Y150000D03*
X187500Y10000D03*
G54D14*
X124744Y19154D03*
X140492D03*
G54D15*
X117500Y50000D03*
Y80000D03*
Y70000D03*
Y60000D03*
G54D16*
G01X74500Y142000D02*
X70000Y137500D01*
X31500D01*
X15000Y121000D01*
Y112000D01*
X34882Y92118D01*
Y40500D01*
G01X45000Y123000D02*
Y105500D01*
X39500Y100000D01*
Y40500D01*
G01X35000Y126000D02*
X65500D01*
X66500Y127000D01*
X105500D01*
X137000Y95500D01*
X173500D01*
X180000Y89000D01*
G01X44500Y129000D02*
X107500D01*
X138172Y98328D01*
X175672D01*
X185000Y89000D01*
G01X117500Y70000D02*
X87878Y40378D01*
X66378D01*
G01X60000Y117500D02*
X67000Y124500D01*
X103000D01*
X135500Y92000D01*
X172000D01*
X178000Y86000D01*
X206000D01*
X223110Y103110D01*
G01X80000Y117500D02*
X85000Y122500D01*
X100000D01*
X117500Y105000D01*
Y80000D01*
G54D17*
G01X4098Y117500D02*
X10000D01*
G01X40000Y144098D02*
Y150000D01*
G01X34098D02*
X40000D01*
G01X79500Y145500D02*
X70000D01*
G01D02*
X69500Y145000D01*
G01X93500Y133150D02*
X100650D01*
G01X111795Y50000D02*
X117500D01*
G01D02*
X123205D01*
G54D18*
G01X53000Y133150D02*
X35650D01*
X20000Y117500D01*
G01X148300Y41000D02*
X145300Y38000D01*
X111500D01*
X93000Y19500D01*
X51000D01*
X40000Y8500D01*
G01X53000Y133150D02*
X75650D01*
G01D02*
X83650D01*
X87500Y137000D01*
X96800D01*
X101650Y141850D01*
G01X60000Y150000D02*
X93500D01*
X101650Y141850D01*
G01X146136Y49000D02*
X141136Y44000D01*
X107705D01*
X96500Y32795D01*
G01X101650Y141850D02*
X159000D01*
G01X117500Y60000D02*
X135000D01*
X146000Y49000D01*
X146136D01*
G01D02*
X147500D01*
G01X211000Y71500D02*
X188500Y49000D01*
X156500D01*
G01D02*
X147500D01*
G54D19*
G01X125000Y26500D02*
X141500Y10000D01*
X167500D01*
G01D02*
X177500D01*
G01X187500D02*
Y24000D01*
X170500Y41000D01*
X156500D01*
G01D02*
X148300D01*
M02*
