G04 ================== begin FILE IDENTIFICATION RECORD ==================*
G04 Layout Name:  esp8266-iot-pcb.brd*
G04 Film Name:    DRILL-1-2*
G04 File Format:  Gerber RS274X*
G04 File Origin:  Cadence Allegro -unreleased*
G04 Origin Date:  Tue Nov 19 02:41:02 2019*
G04 *
G04 Layer:  MANUFACTURING/NCLEGEND-1-2*
G04 Layer:  BOARD GEOMETRY/OUTLINE*
G04 Layer:  BOARD GEOMETRY/DIMENSION*
G04 Layer:  MANUFACTURING/PHOTOPLOT_OUTLINE*
G04 *
G04 Offset:    (0.00 0.00)*
G04 Mirror:    No*
G04 Mode:      Positive*
G04 Rotation:  0*
G04 FullContactRelief:  No*
G04 UndefLineWidth:     1.00*
G04 ================== end FILE IDENTIFICATION RECORD ====================*
%FSLAX55Y55*MOIN*%
%IR0*IPPOS*OFA0.00000B0.00000*MIA0B0*SFA1.00000B1.00000*%
%AMMACRO10*
1,1,.001,0.0,.059055*
20,1,.001,0.0,.059055,-.051143,.029528,0.0*
1,1,.001,-.051143,.029528*
20,1,.001,-.051143,.029528,-.051143,-.029527,0.0*
1,1,.001,-.051143,-.029527*
20,1,.001,-.051143,-.029527,0.0,-.059055,0.0*
1,1,.001,0.0,-.059055*
20,1,.001,0.0,-.059055,.051143,-.029528,0.0*
1,1,.001,.051143,-.029528*
20,1,.001,.051143,-.029528,.051143,.029527,0.0*
1,1,.001,.051143,.029527*
20,1,.001,.051143,.029527,0.0,.059055,0.0*
1,1,.001,0.0,.059055*
1,1,.001,-.0246,-.02952*
20,1,.001,-.0246,-.02952,0.0,.02953,0.0*
1,1,.001,0.0,.02953*
20,1,.001,0.0,.02953,.02461,-.02952,0.0*
1,1,.001,.02461,-.02952*
1,1,.001,.01575,-.00885*
20,1,.001,.01575,-.00885,-.01574,-.00885,0.0*
1,1,.001,-.01574,-.00885*
%
%ADD10MACRO10*%
%AMMACRO11*
1,1,.001,.025,0.0*
20,1,.001,.025,0.0,-.025,0.0,0.0*
1,1,.001,-.025,0.0*
1,1,.001,0.0,.025*
20,1,.001,0.0,.025,0.0,-.025,0.0*
1,1,.001,0.0,-.025*
1,1,.001,.00208,0.0*
20,1,.001,.00208,0.0,.0125,.025,0.0*
1,1,.001,.0125,.025*
20,1,.001,.0125,.025,.02292,0.0,0.0*
1,1,.001,.02292,0.0*
1,1,.001,.01917,.00875*
20,1,.001,.01917,.00875,.00583,.00875,0.0*
1,1,.001,.00583,.00875*
%
%ADD11MACRO11*%
%AMMACRO12*
1,1,.001,.004078,-.009845*
20,1,.001,.004078,-.009845,-.004078,-.009845,0.0*
1,1,.001,-.004078,-.009845*
20,1,.001,-.004078,-.009845,-.009845,-.004078,0.0*
1,1,.001,-.009845,-.004078*
20,1,.001,-.009845,-.004078,-.009845,.004078,0.0*
1,1,.001,-.009845,.004078*
20,1,.001,-.009845,.004078,-.004078,.009845,0.0*
1,1,.001,-.004078,.009845*
20,1,.001,-.004078,.009845,.004078,.009845,0.0*
1,1,.001,.004078,.009845*
20,1,.001,.004078,.009845,.009845,.004078,0.0*
1,1,.001,.009845,.004078*
20,1,.001,.009845,.004078,.009845,-.004078,0.0*
1,1,.001,.009845,-.004078*
20,1,.001,.009845,-.004078,.004078,-.009845,0.0*
1,1,.001,.004078,-.009845*
1,1,.001,-.0041,-.00492*
20,1,.001,-.0041,-.00492,0.0,.00492,0.0*
1,1,.001,0.0,.00492*
20,1,.001,0.0,.00492,.0041,-.00492,0.0*
1,1,.001,.0041,-.00492*
1,1,.001,.00262,-.00148*
20,1,.001,.00262,-.00148,-.00262,-.00148,0.0*
1,1,.001,-.00262,-.00148*
%
%ADD12MACRO12*%
%ADD13C,.001*%
G75*
%LPD*%
G75*
G54D10*
X13500Y14000D03*
X14000Y144000D03*
X222500Y14000D03*
X222000Y143500D03*
X350950Y24500D03*
G54D11*
X19000Y29000D03*
X8000Y30500D03*
X11000Y101500D03*
X5500Y107000D03*
X21500Y98000D03*
X10000Y122902D03*
X4098Y117500D03*
X10000Y112098D03*
X5000Y131500D03*
X35000Y22000D03*
X34882Y40500D03*
X39500D03*
X47500Y54500D03*
X26000Y27000D03*
X47500Y83000D03*
Y73000D03*
Y63000D03*
X45000Y123000D03*
X53000Y133150D03*
X35000Y126000D03*
X44500Y129000D03*
X66378Y40378D03*
X76000Y54500D03*
X60000Y48000D03*
X77500Y70000D03*
X64500Y78500D03*
X67000Y59500D03*
X60500Y66500D03*
X77000Y84500D03*
X75650Y133150D03*
X74500Y142000D03*
X69500Y145000D03*
X65500Y142500D03*
X82000D03*
X103000Y18000D03*
X104000Y4500D03*
X96500Y32795D03*
X83000Y50500D03*
X106500Y49500D03*
X110000Y54000D03*
X86500Y79000D03*
X86000Y62500D03*
X107500Y77500D03*
X95000Y95000D03*
X90000Y102500D03*
X103000Y102000D03*
X106500Y94000D03*
X96000Y109000D03*
X93500Y133150D03*
X101650Y141850D03*
X86000Y142000D03*
X112000Y20500D03*
X125000Y26500D03*
X121000D03*
X137736Y30000D03*
X129000Y53500D03*
X124000D03*
X133000Y51000D03*
X127500Y49500D03*
X129000Y69000D03*
X133500Y78000D03*
X128500Y83000D03*
X127500Y90000D03*
X121500Y100000D03*
X118000Y130500D03*
X112000Y132500D03*
X135500Y112500D03*
X129000Y117000D03*
Y125000D03*
X134000Y129000D03*
X142000Y22500D03*
X162500Y19500D03*
X156500Y4000D03*
X161500D03*
X153500Y23500D03*
X147500Y49000D03*
X156500D03*
X158500Y54055D03*
X158000Y32000D03*
X148500Y34000D03*
X152500Y29000D03*
X141500Y31500D03*
X148300Y41000D03*
X156500D03*
X152500Y60500D03*
X165295Y59205D03*
X146500Y66000D03*
X148000Y73000D03*
X145500Y105000D03*
X142000Y108000D03*
X140000Y84000D03*
X156500Y87500D03*
X162000D03*
X149000Y88000D03*
X140000Y131500D03*
X148000Y132000D03*
X161000Y131500D03*
X165500Y113500D03*
X159000Y141850D03*
X145000Y147500D03*
X176500Y26000D03*
X168500Y24500D03*
X179000Y20000D03*
X171945Y54055D03*
X190000Y31000D03*
X183500Y62000D03*
X195000Y64000D03*
X180000Y57000D03*
X173000Y63000D03*
X193500Y95000D03*
X190000Y89000D03*
Y101500D03*
X172000Y105000D03*
X171500Y109000D03*
X194500Y108500D03*
X180000Y89000D03*
X185000D03*
X174000Y132000D03*
X185000Y126500D03*
Y113000D03*
X193500Y116000D03*
X192500Y137500D03*
X178500Y112000D03*
X198500Y5000D03*
X204500Y14000D03*
X223890Y46890D03*
X202500Y54500D03*
X202000Y43500D03*
X220500Y39500D03*
X200000Y29500D03*
X210500Y34000D03*
X211000Y71500D03*
X205000Y83000D03*
X210500Y78500D03*
X197500Y81500D03*
X214000Y57000D03*
X223110Y103110D03*
X202500Y100500D03*
X203500Y93500D03*
X214500Y85000D03*
X216500Y89000D03*
X209500Y99000D03*
X218500Y114000D03*
X198000Y131000D03*
X203000Y147500D03*
X196339Y152500D03*
X232000Y31500D03*
X227500Y42807D03*
X231500Y47000D03*
X230000Y116000D03*
X350950Y99500D03*
G54D12*
X20000Y117500D03*
X50000Y8500D03*
X40000D03*
X50000Y117500D03*
X40000D03*
X30000D03*
X50000Y150000D03*
X80000Y8500D03*
X70000D03*
X60000D03*
X80000Y117500D03*
X70000D03*
X60000D03*
Y150000D03*
X90000Y8500D03*
Y117500D03*
X117500Y50000D03*
Y80000D03*
Y70000D03*
Y60000D03*
X167500Y10000D03*
X177500D03*
X350950Y49500D03*
G54D13*
G01X9843Y0D02*
X226378D01*
G03X236220Y9843I0J9842D01*
G01Y147638D01*
G03X226378Y157480I-9842J0D01*
G01X9843D01*
G03X0Y147638I-1J-9842D01*
G01Y9843D01*
G03X9843Y0I9843J0D01*
G01X306000Y-13000D02*
Y187000D01*
X802000D01*
Y-13000D01*
X306000D01*
G01Y12000D02*
X802000D01*
G01X306000Y37000D02*
X802000D01*
G01X306000Y62000D02*
X802000D01*
G01X306000Y87000D02*
X802000D01*
G01X306000Y137000D02*
X802000D01*
G01X306000Y112000D02*
X802000D01*
G01X306000Y162000D02*
X802000D01*
G01X317005Y118250D02*
Y130750D01*
X322895D01*
G01X320725Y124708D02*
X317005D01*
G01X330490Y130750D02*
X334210D01*
G01X332350D02*
Y118250D01*
G01X330490D02*
X334210D01*
G01X345680Y124500D02*
X348780D01*
Y120750D01*
X347850Y119500D01*
X346765Y118667D01*
X345215Y118250D01*
X343665Y118667D01*
X342580Y119500D01*
X341650Y120750D01*
X341030Y122208D01*
X340720Y123875D01*
Y125333D01*
X341030Y126583D01*
X341650Y128042D01*
X342580Y129292D01*
X343510Y130125D01*
X344750Y130750D01*
X345835D01*
X347075Y130333D01*
X348005Y129500D01*
G01X353740Y130750D02*
Y121792D01*
X354360Y119916D01*
X355600Y118667D01*
X357150Y118250D01*
X358700Y118667D01*
X359940Y119916D01*
X360560Y121792D01*
Y130750D01*
G01X366450Y118250D02*
Y130750D01*
X370325D01*
X371565Y130125D01*
X372340Y129292D01*
X372650Y127625D01*
X372340Y125958D01*
X371410Y124917D01*
X370325Y124292D01*
X366450D01*
G01X370325D02*
X372650Y118250D01*
G01X385050D02*
X378850D01*
Y130750D01*
X385050D01*
G01X382570Y124708D02*
X378850D01*
G01X395900Y137000D02*
Y-13000D01*
G01X419305Y118250D02*
Y130750D01*
X425195D01*
G01X423025Y124708D02*
X419305D01*
G01X432790Y130750D02*
X436510D01*
G01X434650D02*
Y118250D01*
G01X432790D02*
X436510D01*
G01X443485D02*
Y130750D01*
X450615Y118250D01*
Y130750D01*
G01X457590D02*
X461310D01*
G01X459450D02*
Y118250D01*
G01X457590D02*
X461310D01*
G01X468595Y119916D02*
X469835Y118875D01*
X471230Y118250D01*
X472470D01*
X473710Y118875D01*
X474640Y119916D01*
X475105Y121375D01*
X474795Y122833D01*
X474020Y124083D01*
X472625Y124917D01*
X470765Y125333D01*
X469680Y126167D01*
X469215Y127625D01*
X469525Y129083D01*
X470300Y130125D01*
X471385Y130750D01*
X472470D01*
X473555Y130333D01*
X474485Y129292D01*
G01X480995Y118250D02*
Y130750D01*
G01X487505D02*
Y118250D01*
G01Y124500D02*
X480995D01*
G01X499750Y118250D02*
X493550D01*
Y130750D01*
X499750D01*
G01X497270Y124708D02*
X493550D01*
G01X505640Y118250D02*
Y130750D01*
X508740D01*
X509980Y130125D01*
X510910Y129292D01*
X511685Y128042D01*
X512305Y126583D01*
X512460Y124500D01*
X512305Y122417D01*
X511685Y120958D01*
X510910Y119708D01*
X509980Y118875D01*
X508740Y118250D01*
X505640D01*
G01X516800Y114083D02*
X526100D01*
G01X530595Y119916D02*
X531835Y118875D01*
X533230Y118250D01*
X534470D01*
X535710Y118875D01*
X536640Y119916D01*
X537105Y121375D01*
X536795Y122833D01*
X536020Y124083D01*
X534625Y124917D01*
X532765Y125333D01*
X531680Y126167D01*
X531215Y127625D01*
X531525Y129083D01*
X532300Y130125D01*
X533385Y130750D01*
X534470D01*
X535555Y130333D01*
X536485Y129292D01*
G01X544390Y130750D02*
X548110D01*
G01X546250D02*
Y118250D01*
G01X544390D02*
X548110D01*
G01X555705Y130750D02*
X561595D01*
X555705Y118250D01*
X561595D01*
G01X574150D02*
X567950D01*
Y130750D01*
X574150D01*
G01X571670Y124708D02*
X567950D01*
G01X395590Y168250D02*
Y180750D01*
X398690D01*
X399930Y180125D01*
X400860Y179292D01*
X401635Y178042D01*
X402255Y176583D01*
X402410Y174500D01*
X402255Y172417D01*
X401635Y170958D01*
X400860Y169708D01*
X399930Y168875D01*
X398690Y168250D01*
X395590D01*
G01X408300D02*
Y180750D01*
X412175D01*
X413415Y180125D01*
X414190Y179292D01*
X414500Y177625D01*
X414190Y175958D01*
X413260Y174917D01*
X412175Y174292D01*
X408300D01*
G01X412175D02*
X414500Y168250D01*
G01X421940Y180750D02*
X425660D01*
G01X423800D02*
Y168250D01*
G01X421940D02*
X425660D01*
G01X433100Y180750D02*
Y168250D01*
X439300D01*
G01X445500Y180750D02*
Y168250D01*
X451700D01*
G01X476810Y179708D02*
X475880Y180333D01*
X474795Y180750D01*
X473555D01*
X472160Y180125D01*
X471075Y179083D01*
X470300Y177833D01*
X469680Y175750D01*
X469525Y173875D01*
X469835Y172000D01*
X470300Y170750D01*
X471230Y169500D01*
X472315Y168667D01*
X473400Y168250D01*
X474485D01*
X475570Y168667D01*
X476500Y169291D01*
X477275Y170125D01*
G01X482545Y168250D02*
Y180750D01*
G01X489055D02*
Y168250D01*
G01Y174500D02*
X482545D01*
G01X494325Y168250D02*
X498200Y180750D01*
X502075Y168250D01*
G01X500680Y172625D02*
X495720D01*
G01X507500Y168250D02*
Y180750D01*
X511375D01*
X512615Y180125D01*
X513390Y179292D01*
X513700Y177625D01*
X513390Y175958D01*
X512460Y174917D01*
X511375Y174292D01*
X507500D01*
G01X511375D02*
X513700Y168250D01*
G01X523000Y180750D02*
Y168250D01*
G01X519435Y180750D02*
X526565D01*
G01X535400Y167833D02*
X535090Y168042D01*
Y168458D01*
X535400Y168667D01*
X535710Y168458D01*
Y168042D01*
X535400Y167833D01*
G01Y173458D02*
X535090Y173667D01*
Y174083D01*
X535400Y174292D01*
X535710Y174083D01*
Y173667D01*
X535400Y173458D01*
G01X560200Y180750D02*
Y168250D01*
G01X556635Y180750D02*
X563765D01*
G01X572600Y168250D02*
X571360Y168458D01*
X570275Y169291D01*
X569345Y170542D01*
X568725Y172000D01*
X568415Y173667D01*
Y175333D01*
X568725Y177000D01*
X569345Y178458D01*
X570275Y179708D01*
X571360Y180542D01*
X572600Y180750D01*
X573840Y180542D01*
X574925Y179708D01*
X575855Y178458D01*
X576475Y177000D01*
X576785Y175333D01*
Y173667D01*
X576475Y172000D01*
X575855Y170542D01*
X574925Y169291D01*
X573840Y168458D01*
X572600Y168250D01*
G01X581900D02*
Y180750D01*
X585620D01*
X586860Y180125D01*
X587790Y178667D01*
X588100Y177000D01*
X587790Y175333D01*
X587015Y174083D01*
X585620Y173458D01*
X581900D01*
G01X609800Y180750D02*
Y168250D01*
G01X607630Y176583D02*
X611970D01*
G01X622200Y168250D02*
X621270Y168458D01*
X620340Y169291D01*
X619720Y170750D01*
X619410Y172417D01*
X619720Y174083D01*
X620340Y175542D01*
X621270Y176375D01*
X622200Y176583D01*
X623130Y176375D01*
X624060Y175542D01*
X624680Y174083D01*
X624835Y172417D01*
X624680Y170750D01*
X624060Y169291D01*
X623130Y168458D01*
X622200Y168250D01*
G01X648240Y174917D02*
X648860Y175542D01*
X649325Y176583D01*
X649635Y178042D01*
X649325Y179292D01*
X648705Y180125D01*
X647620Y180750D01*
X643435D01*
Y168250D01*
X648550D01*
X649635Y169083D01*
X650255Y170333D01*
X650565Y171792D01*
X650255Y173250D01*
X649325Y174500D01*
X648240Y174917D01*
X643435D01*
G01X659400Y168250D02*
X658160Y168458D01*
X657075Y169291D01*
X656145Y170542D01*
X655525Y172000D01*
X655215Y173667D01*
Y175333D01*
X655525Y177000D01*
X656145Y178458D01*
X657075Y179708D01*
X658160Y180542D01*
X659400Y180750D01*
X660640Y180542D01*
X661725Y179708D01*
X662655Y178458D01*
X663275Y177000D01*
X663585Y175333D01*
Y173667D01*
X663275Y172000D01*
X662655Y170542D01*
X661725Y169291D01*
X660640Y168458D01*
X659400Y168250D01*
G01X671800Y180750D02*
Y168250D01*
G01X668235Y180750D02*
X675365D01*
G01X684200D02*
Y168250D01*
G01X680635Y180750D02*
X687765D01*
G01X696600Y168250D02*
X695360Y168458D01*
X694275Y169291D01*
X693345Y170542D01*
X692725Y172000D01*
X692415Y173667D01*
Y175333D01*
X692725Y177000D01*
X693345Y178458D01*
X694275Y179708D01*
X695360Y180542D01*
X696600Y180750D01*
X697840Y180542D01*
X698925Y179708D01*
X699855Y178458D01*
X700475Y177000D01*
X700785Y175333D01*
Y173667D01*
X700475Y172000D01*
X699855Y170542D01*
X698925Y169291D01*
X697840Y168458D01*
X696600Y168250D01*
G01X704970D02*
Y180750D01*
X709000Y170333D01*
X713030Y180750D01*
Y168250D01*
G01X426125Y143250D02*
X430000Y155750D01*
X433875Y143250D01*
G01X432480Y147625D02*
X427520D01*
G01X439300Y155750D02*
Y143250D01*
X445500D01*
G01X451700Y155750D02*
Y143250D01*
X457900D01*
G01X476190Y155750D02*
Y146792D01*
X476810Y144916D01*
X478050Y143667D01*
X479600Y143250D01*
X481150Y143667D01*
X482390Y144916D01*
X483010Y146792D01*
Y155750D01*
G01X488435Y143250D02*
Y155750D01*
X495565Y143250D01*
Y155750D01*
G01X502540D02*
X506260D01*
G01X504400D02*
Y143250D01*
G01X502540D02*
X506260D01*
G01X516800Y155750D02*
Y143250D01*
G01X513235Y155750D02*
X520365D01*
G01X525945Y144916D02*
X527185Y143875D01*
X528580Y143250D01*
X529820D01*
X531060Y143875D01*
X531990Y144916D01*
X532455Y146375D01*
X532145Y147833D01*
X531370Y149083D01*
X529975Y149917D01*
X528115Y150333D01*
X527030Y151167D01*
X526565Y152625D01*
X526875Y154083D01*
X527650Y155125D01*
X528735Y155750D01*
X529820D01*
X530905Y155333D01*
X531835Y154292D01*
G01X550125Y143250D02*
X554000Y155750D01*
X557875Y143250D01*
G01X556480Y147625D02*
X551520D01*
G01X563300Y143250D02*
Y155750D01*
X567175D01*
X568415Y155125D01*
X569190Y154292D01*
X569500Y152625D01*
X569190Y150958D01*
X568260Y149917D01*
X567175Y149292D01*
X563300D01*
G01X567175D02*
X569500Y143250D01*
G01X581900D02*
X575700D01*
Y155750D01*
X581900D01*
G01X579420Y149708D02*
X575700D01*
G01X601740Y155750D02*
X605460D01*
G01X603600D02*
Y143250D01*
G01X601740D02*
X605460D01*
G01X612435D02*
Y155750D01*
X619565Y143250D01*
Y155750D01*
G01X636770Y143250D02*
Y155750D01*
X640800Y145333D01*
X644830Y155750D01*
Y143250D01*
G01X651340Y155750D02*
X655060D01*
G01X653200D02*
Y143250D01*
G01X651340D02*
X655060D01*
G01X662500Y155750D02*
Y143250D01*
X668700D01*
G01X674745Y144916D02*
X675985Y143875D01*
X677380Y143250D01*
X678620D01*
X679860Y143875D01*
X680790Y144916D01*
X681255Y146375D01*
X680945Y147833D01*
X680170Y149083D01*
X678775Y149917D01*
X676915Y150333D01*
X675830Y151167D01*
X675365Y152625D01*
X675675Y154083D01*
X676450Y155125D01*
X677535Y155750D01*
X678620D01*
X679705Y155333D01*
X680635Y154292D01*
G01X468905Y3667D02*
X469835Y4916D01*
X470920Y5542D01*
X472160Y5750D01*
X473710Y5333D01*
X474795Y4292D01*
X475105Y3042D01*
X474950Y1791D01*
X474330Y750D01*
X471230Y-1333D01*
X469835Y-2792D01*
X468905Y-4875D01*
X468595Y-6750D01*
X475105D01*
G01X480840Y-4250D02*
X481770Y-5709D01*
X483010Y-6542D01*
X484405Y-6750D01*
X485645Y-6542D01*
X486885Y-5500D01*
X487660Y-4250D01*
X487815Y-3000D01*
X487505Y-1542D01*
X486420Y-500D01*
X485335Y-83D01*
X483940D01*
G01X485335D02*
X486265Y542D01*
X487040Y1583D01*
X487350Y2833D01*
X487040Y4083D01*
X486265Y5125D01*
X484870Y5750D01*
X483475Y5542D01*
X482080Y4708D01*
G01X496650Y-7167D02*
X496340Y-6958D01*
Y-6542D01*
X496650Y-6333D01*
X496960Y-6542D01*
Y-6958D01*
X496650Y-7167D01*
G01X506105Y-1542D02*
X507190Y-83D01*
X508120Y750D01*
X509360Y1167D01*
X510445Y750D01*
X511220Y-83D01*
X511840Y-1333D01*
X511995Y-2792D01*
X511840Y-4042D01*
X511220Y-5292D01*
X510290Y-6333D01*
X509205Y-6750D01*
X507965Y-6333D01*
X506880Y-5084D01*
X506260Y-3208D01*
X506105Y-1125D01*
X506415Y1583D01*
X506880Y3042D01*
X507655Y4500D01*
X508740Y5542D01*
X509825Y5750D01*
X510910Y5333D01*
X511685Y4292D01*
G01X518505Y3667D02*
X519435Y4916D01*
X520520Y5542D01*
X521760Y5750D01*
X523310Y5333D01*
X524395Y4292D01*
X524705Y3042D01*
X524550Y1791D01*
X523930Y750D01*
X520830Y-1333D01*
X519435Y-2792D01*
X518505Y-4875D01*
X518195Y-6750D01*
X524705D01*
G01X465650Y18250D02*
Y30750D01*
X463790Y28250D01*
G01Y18250D02*
X467510D01*
G01X478050D02*
Y30750D01*
X476190Y28250D01*
G01Y18250D02*
X479910D01*
G01X490450D02*
X491535Y18458D01*
X492775Y19083D01*
X493550Y20125D01*
X493860Y21583D01*
X493550Y23041D01*
X492620Y24292D01*
X491225Y24917D01*
X489675D01*
X488745Y25333D01*
X487970Y26375D01*
X487660Y27833D01*
X488125Y29292D01*
X489210Y30333D01*
X490450Y30750D01*
X491690Y30333D01*
X492775Y29292D01*
X493240Y27833D01*
X492930Y26375D01*
X492155Y25333D01*
X491225Y24917D01*
X489675D01*
X488280Y24292D01*
X487350Y23041D01*
X487040Y21583D01*
X487350Y20125D01*
X488125Y19083D01*
X489365Y18458D01*
X490450Y18250D01*
G01X502850Y17833D02*
X502540Y18042D01*
Y18458D01*
X502850Y18667D01*
X503160Y18458D01*
Y18042D01*
X502850Y17833D01*
G01X515250Y18250D02*
Y30750D01*
X513390Y28250D01*
G01Y18250D02*
X517110D01*
G01X527650D02*
Y30750D01*
X525790Y28250D01*
G01Y18250D02*
X529510D01*
G01X468440Y45750D02*
X469370Y44291D01*
X470610Y43458D01*
X472005Y43250D01*
X473245Y43458D01*
X474485Y44500D01*
X475260Y45750D01*
X475415Y47000D01*
X475105Y48458D01*
X474020Y49500D01*
X472935Y49917D01*
X471540D01*
G01X472935D02*
X473865Y50542D01*
X474640Y51583D01*
X474950Y52833D01*
X474640Y54083D01*
X473865Y55125D01*
X472470Y55750D01*
X471075Y55542D01*
X469680Y54708D01*
G01X481615Y44708D02*
X482700Y43667D01*
X483940Y43250D01*
X485180Y43667D01*
X486265Y44916D01*
X487040Y46792D01*
X487350Y48667D01*
Y50958D01*
X487040Y52833D01*
X486265Y54500D01*
X485335Y55333D01*
X484250Y55750D01*
X483010Y55333D01*
X482080Y54500D01*
X481460Y53250D01*
X481150Y51583D01*
X481460Y50125D01*
X482235Y48667D01*
X483165Y47833D01*
X484250Y47625D01*
X485490Y48041D01*
X486420Y49083D01*
X487350Y50958D01*
G01X496650Y42833D02*
X496340Y43042D01*
Y43458D01*
X496650Y43667D01*
X496960Y43458D01*
Y43042D01*
X496650Y42833D01*
G01X505640Y45750D02*
X506570Y44291D01*
X507810Y43458D01*
X509205Y43250D01*
X510445Y43458D01*
X511685Y44500D01*
X512460Y45750D01*
X512615Y47000D01*
X512305Y48458D01*
X511220Y49500D01*
X510135Y49917D01*
X508740D01*
G01X510135D02*
X511065Y50542D01*
X511840Y51583D01*
X512150Y52833D01*
X511840Y54083D01*
X511065Y55125D01*
X509670Y55750D01*
X508275Y55542D01*
X506880Y54708D01*
G01X521140Y43250D02*
X521450Y45958D01*
X521915Y48250D01*
X522535Y50333D01*
X523310Y52625D01*
X524550Y55750D01*
X518350D01*
G01X468440Y70750D02*
X469370Y69291D01*
X470610Y68458D01*
X472005Y68250D01*
X473245Y68458D01*
X474485Y69500D01*
X475260Y70750D01*
X475415Y72000D01*
X475105Y73458D01*
X474020Y74500D01*
X472935Y74917D01*
X471540D01*
G01X472935D02*
X473865Y75542D01*
X474640Y76583D01*
X474950Y77833D01*
X474640Y79083D01*
X473865Y80125D01*
X472470Y80750D01*
X471075Y80542D01*
X469680Y79708D01*
G01X481615Y69708D02*
X482700Y68667D01*
X483940Y68250D01*
X485180Y68667D01*
X486265Y69916D01*
X487040Y71792D01*
X487350Y73667D01*
Y75958D01*
X487040Y77833D01*
X486265Y79500D01*
X485335Y80333D01*
X484250Y80750D01*
X483010Y80333D01*
X482080Y79500D01*
X481460Y78250D01*
X481150Y76583D01*
X481460Y75125D01*
X482235Y73667D01*
X483165Y72833D01*
X484250Y72625D01*
X485490Y73041D01*
X486420Y74083D01*
X487350Y75958D01*
G01X496650Y67833D02*
X496340Y68042D01*
Y68458D01*
X496650Y68667D01*
X496960Y68458D01*
Y68042D01*
X496650Y67833D01*
G01X505640Y70750D02*
X506570Y69291D01*
X507810Y68458D01*
X509205Y68250D01*
X510445Y68458D01*
X511685Y69500D01*
X512460Y70750D01*
X512615Y72000D01*
X512305Y73458D01*
X511220Y74500D01*
X510135Y74917D01*
X508740D01*
G01X510135D02*
X511065Y75542D01*
X511840Y76583D01*
X512150Y77833D01*
X511840Y79083D01*
X511065Y80125D01*
X509670Y80750D01*
X508275Y80542D01*
X506880Y79708D01*
G01X521140Y68250D02*
X521450Y70958D01*
X521915Y73250D01*
X522535Y75333D01*
X523310Y77625D01*
X524550Y80750D01*
X518350D01*
G01X478050Y93250D02*
Y105750D01*
X476190Y103250D01*
G01Y93250D02*
X479910D01*
G01X487505Y103667D02*
X488435Y104916D01*
X489520Y105542D01*
X490760Y105750D01*
X492310Y105333D01*
X493395Y104292D01*
X493705Y103042D01*
X493550Y101791D01*
X492930Y100750D01*
X489830Y98667D01*
X488435Y97208D01*
X487505Y95125D01*
X487195Y93250D01*
X493705D01*
G01X502850Y92833D02*
X502540Y93042D01*
Y93458D01*
X502850Y93667D01*
X503160Y93458D01*
Y93042D01*
X502850Y92833D01*
G01X515250Y105750D02*
X514010Y105333D01*
X513080Y104292D01*
X512460Y103042D01*
X511995Y101375D01*
X511840Y99500D01*
X511995Y97625D01*
X512460Y95958D01*
X513080Y94708D01*
X514010Y93667D01*
X515250Y93250D01*
X516490Y93667D01*
X517420Y94708D01*
X518040Y95958D01*
X518505Y97625D01*
X518660Y99500D01*
X518505Y101375D01*
X518040Y103042D01*
X517420Y104292D01*
X516490Y105333D01*
X515250Y105750D01*
G01X601585Y-6750D02*
Y5750D01*
X608715Y-6750D01*
Y5750D01*
G01X617550Y-6750D02*
X616310Y-6542D01*
X615225Y-5709D01*
X614295Y-4458D01*
X613675Y-3000D01*
X613365Y-1333D01*
Y333D01*
X613675Y2000D01*
X614295Y3458D01*
X615225Y4708D01*
X616310Y5542D01*
X617550Y5750D01*
X618790Y5542D01*
X619875Y4708D01*
X620805Y3458D01*
X621425Y2000D01*
X621735Y333D01*
Y-1333D01*
X621425Y-3000D01*
X620805Y-4458D01*
X619875Y-5709D01*
X618790Y-6542D01*
X617550Y-6750D01*
G01X626385D02*
Y5750D01*
X633515Y-6750D01*
Y5750D01*
G01X640335Y-2583D02*
X644365D01*
G01X651650Y-6750D02*
Y5750D01*
X655370D01*
X656610Y5125D01*
X657540Y3667D01*
X657850Y2000D01*
X657540Y333D01*
X656765Y-917D01*
X655370Y-1542D01*
X651650D01*
G01X664050Y5750D02*
Y-6750D01*
X670250D01*
G01X675675D02*
X679550Y5750D01*
X683425Y-6750D01*
G01X682030Y-2375D02*
X677070D01*
G01X691950Y5750D02*
Y-6750D01*
G01X688385Y5750D02*
X695515D01*
G01X707450Y-6750D02*
X701250D01*
Y5750D01*
X707450D01*
G01X704970Y-292D02*
X701250D01*
G01X713340Y-6750D02*
Y5750D01*
X716440D01*
X717680Y5125D01*
X718610Y4292D01*
X719385Y3042D01*
X720005Y1583D01*
X720160Y-500D01*
X720005Y-2583D01*
X719385Y-4042D01*
X718610Y-5292D01*
X717680Y-6125D01*
X716440Y-6750D01*
X713340D01*
G01X597400Y137000D02*
Y-13000D01*
G01X626850Y18250D02*
Y30750D01*
X630570D01*
X631810Y30125D01*
X632740Y28667D01*
X633050Y27000D01*
X632740Y25333D01*
X631965Y24083D01*
X630570Y23458D01*
X626850D01*
G01X639250Y30750D02*
Y18250D01*
X645450D01*
G01X650875D02*
X654750Y30750D01*
X658625Y18250D01*
G01X657230Y22625D02*
X652270D01*
G01X667150Y30750D02*
Y18250D01*
G01X663585Y30750D02*
X670715D01*
G01X682650Y18250D02*
X676450D01*
Y30750D01*
X682650D01*
G01X680170Y24708D02*
X676450D01*
G01X688540Y18250D02*
Y30750D01*
X691640D01*
X692880Y30125D01*
X693810Y29292D01*
X694585Y28042D01*
X695205Y26583D01*
X695360Y24500D01*
X695205Y22417D01*
X694585Y20958D01*
X693810Y19708D01*
X692880Y18875D01*
X691640Y18250D01*
X688540D01*
G01X626850Y43250D02*
Y55750D01*
X630570D01*
X631810Y55125D01*
X632740Y53667D01*
X633050Y52000D01*
X632740Y50333D01*
X631965Y49083D01*
X630570Y48458D01*
X626850D01*
G01X639250Y55750D02*
Y43250D01*
X645450D01*
G01X650875D02*
X654750Y55750D01*
X658625Y43250D01*
G01X657230Y47625D02*
X652270D01*
G01X667150Y55750D02*
Y43250D01*
G01X663585Y55750D02*
X670715D01*
G01X682650Y43250D02*
X676450D01*
Y55750D01*
X682650D01*
G01X680170Y49708D02*
X676450D01*
G01X688540Y43250D02*
Y55750D01*
X691640D01*
X692880Y55125D01*
X693810Y54292D01*
X694585Y53042D01*
X695205Y51583D01*
X695360Y49500D01*
X695205Y47417D01*
X694585Y45958D01*
X693810Y44708D01*
X692880Y43875D01*
X691640Y43250D01*
X688540D01*
G01X626850Y68250D02*
Y80750D01*
X630570D01*
X631810Y80125D01*
X632740Y78667D01*
X633050Y77000D01*
X632740Y75333D01*
X631965Y74083D01*
X630570Y73458D01*
X626850D01*
G01X639250Y80750D02*
Y68250D01*
X645450D01*
G01X650875D02*
X654750Y80750D01*
X658625Y68250D01*
G01X657230Y72625D02*
X652270D01*
G01X667150Y80750D02*
Y68250D01*
G01X663585Y80750D02*
X670715D01*
G01X682650Y68250D02*
X676450D01*
Y80750D01*
X682650D01*
G01X680170Y74708D02*
X676450D01*
G01X688540Y68250D02*
Y80750D01*
X691640D01*
X692880Y80125D01*
X693810Y79292D01*
X694585Y78042D01*
X695205Y76583D01*
X695360Y74500D01*
X695205Y72417D01*
X694585Y70958D01*
X693810Y69708D01*
X692880Y68875D01*
X691640Y68250D01*
X688540D01*
G01X626850Y93250D02*
Y105750D01*
X630570D01*
X631810Y105125D01*
X632740Y103667D01*
X633050Y102000D01*
X632740Y100333D01*
X631965Y99083D01*
X630570Y98458D01*
X626850D01*
G01X639250Y105750D02*
Y93250D01*
X645450D01*
G01X650875D02*
X654750Y105750D01*
X658625Y93250D01*
G01X657230Y97625D02*
X652270D01*
G01X667150Y105750D02*
Y93250D01*
G01X663585Y105750D02*
X670715D01*
G01X682650Y93250D02*
X676450D01*
Y105750D01*
X682650D01*
G01X680170Y99708D02*
X676450D01*
G01X688540Y93250D02*
Y105750D01*
X691640D01*
X692880Y105125D01*
X693810Y104292D01*
X694585Y103042D01*
X695205Y101583D01*
X695360Y99500D01*
X695205Y97417D01*
X694585Y95958D01*
X693810Y94708D01*
X692880Y93875D01*
X691640Y93250D01*
X688540D01*
G01X626850Y118250D02*
Y130750D01*
X630570D01*
X631810Y130125D01*
X632740Y128667D01*
X633050Y127000D01*
X632740Y125333D01*
X631965Y124083D01*
X630570Y123458D01*
X626850D01*
G01X639250Y130750D02*
Y118250D01*
X645450D01*
G01X650875D02*
X654750Y130750D01*
X658625Y118250D01*
G01X657230Y122625D02*
X652270D01*
G01X667150Y130750D02*
Y118250D01*
G01X663585Y130750D02*
X670715D01*
G01X682650Y118250D02*
X676450D01*
Y130750D01*
X682650D01*
G01X680170Y124708D02*
X676450D01*
G01X688540Y118250D02*
Y130750D01*
X691640D01*
X692880Y130125D01*
X693810Y129292D01*
X694585Y128042D01*
X695205Y126583D01*
X695360Y124500D01*
X695205Y122417D01*
X694585Y120958D01*
X693810Y119708D01*
X692880Y118875D01*
X691640Y118250D01*
X688540D01*
G01X724500Y137000D02*
Y-13000D01*
G01X760305Y3667D02*
X761235Y4916D01*
X762320Y5542D01*
X763560Y5750D01*
X765110Y5333D01*
X766195Y4292D01*
X766505Y3042D01*
X766350Y1791D01*
X765730Y750D01*
X762630Y-1333D01*
X761235Y-2792D01*
X760305Y-4875D01*
X759995Y-6750D01*
X766505D01*
G01X765110Y18250D02*
Y30750D01*
X759375Y21792D01*
X767125D01*
G01X754105Y53667D02*
X755035Y54916D01*
X756120Y55542D01*
X757360Y55750D01*
X758910Y55333D01*
X759995Y54292D01*
X760305Y53042D01*
X760150Y51791D01*
X759530Y50750D01*
X756430Y48667D01*
X755035Y47208D01*
X754105Y45125D01*
X753795Y43250D01*
X760305D01*
G01X766505Y53667D02*
X767435Y54916D01*
X768520Y55542D01*
X769760Y55750D01*
X771310Y55333D01*
X772395Y54292D01*
X772705Y53042D01*
X772550Y51791D01*
X771930Y50750D01*
X768830Y48667D01*
X767435Y47208D01*
X766505Y45125D01*
X766195Y43250D01*
X772705D01*
G01X765110Y68250D02*
Y80750D01*
X759375Y71792D01*
X767125D01*
G01X750850Y93250D02*
Y105750D01*
X748990Y103250D01*
G01Y93250D02*
X752710D01*
G01X759840Y95125D02*
X760770Y94083D01*
X761855Y93458D01*
X763250Y93250D01*
X764645Y93667D01*
X765730Y94500D01*
X766505Y95958D01*
X766660Y97625D01*
X766350Y99292D01*
X765575Y100333D01*
X764490Y101167D01*
X763405Y101375D01*
X762320Y101167D01*
X760925Y100333D01*
X761390Y105750D01*
X765575D01*
G01X775650D02*
X774410Y105333D01*
X773480Y104292D01*
X772860Y103042D01*
X772395Y101375D01*
X772240Y99500D01*
X772395Y97625D01*
X772860Y95958D01*
X773480Y94708D01*
X774410Y93667D01*
X775650Y93250D01*
X776890Y93667D01*
X777820Y94708D01*
X778440Y95958D01*
X778905Y97625D01*
X779060Y99500D01*
X778905Y101375D01*
X778440Y103042D01*
X777820Y104292D01*
X776890Y105333D01*
X775650Y105750D01*
G01X750850Y118250D02*
X749610Y118458D01*
X748525Y119291D01*
X747595Y120542D01*
X746975Y122000D01*
X746665Y123667D01*
Y125333D01*
X746975Y127000D01*
X747595Y128458D01*
X748525Y129708D01*
X749610Y130542D01*
X750850Y130750D01*
X752090Y130542D01*
X753175Y129708D01*
X754105Y128458D01*
X754725Y127000D01*
X755035Y125333D01*
Y123667D01*
X754725Y122000D01*
X754105Y120542D01*
X753175Y119291D01*
X752090Y118458D01*
X750850Y118250D01*
G01X752090Y121583D02*
X753950Y118250D01*
G01X763250Y130750D02*
Y118250D01*
G01X759685Y130750D02*
X766815D01*
G01X775650Y118250D02*
Y123875D01*
X772550Y130750D01*
G01X778750D02*
X775650Y123875D01*
M02*
