M48
INCH
T01C.012
T02C.03937
T03C.11811
T04C.02362
;LEADER: 12 
;HEADER: 
;CODE  : ASCII 
;FILE  : esp8266-iot-pcb-1-2.drl for board G:/Cadence Allegro/My_Prj/ESP8266-IOT/PCB/20191109-2004/#Taaaaaw11368.tmp ... layers TOP and BOTTOM
;T01 Holesize 1. = 12.000000 Tolerance = +0.000000/-0.000000 PLATED MILS Quantity = 150
;T02 Holesize 2. = 39.370000 Tolerance = +0.000000/-0.000000 PLATED MILS Quantity = 26
;T03 Holesize 3. = 118.110000 Tolerance = +0.000000/-0.000000 PLATED MILS Quantity = 4
;T04 Holesize 4. = 23.620000 Tolerance = +0.000000/-0.000000 NON_PLATED MILS Quantity = 2
%
G90
T01
X0000103000Y0000018000
X0000104000Y0000004500
X0000156500Y0000004000
X0000161500Y0000004000
X0000162500Y0000019500
X0000198500Y0000005000
X0000204500Y0000014000
X0000232000Y0000031500
X0000220500Y0000039500
X0000210500Y0000034000
X0000200000Y0000029500
X0000190000Y0000031000
X0000179000Y0000020000
X0000176500Y0000026000
X0000168500Y0000024500
X0000158000Y0000032000
X0000153500Y0000023500
X0000152500Y0000029000
X0000148500Y0000034000
X0000142000Y0000022500
X0000141500Y0000031500
X0000137736Y0000030000
X0000125000Y0000026500
X0000121000Y0000026500
X0000112000Y0000020500
X0000096500Y0000032795
X0000035000Y0000022000
X0000026000Y0000027000
X0000019000Y0000029000
X0000008000Y0000030500
X0000034882Y0000040500
X0000039500Y0000040500
X0000047500Y0000054500
X0000060000Y0000048000
X0000066378Y0000040378
X0000067000Y0000059500
X0000076000Y0000054500
X0000083000Y0000050500
X0000106500Y0000049500
X0000110000Y0000054000
X0000124000Y0000053500
X0000127500Y0000049500
X0000129000Y0000053500
X0000133000Y0000051000
X0000147500Y0000049000
X0000148300Y0000041000
X0000156500Y0000041000
X0000156500Y0000049000
X0000158500Y0000054055
X0000165295Y0000059205
X0000171945Y0000054055
X0000180000Y0000057000
X0000202000Y0000043500
X0000202500Y0000054500
X0000214000Y0000057000
X0000223890Y0000046890
X0000227500Y0000042807
X0000231500Y0000047000
X0000211000Y0000071500
X0000210500Y0000078500
X0000195000Y0000064000
X0000183500Y0000062000
X0000173000Y0000063000
X0000152500Y0000060500
X0000148000Y0000073000
X0000146500Y0000066000
X0000133500Y0000078000
X0000129000Y0000069000
X0000107500Y0000077500
X0000086500Y0000079000
X0000086000Y0000062500
X0000077500Y0000070000
X0000064500Y0000078500
X0000060500Y0000066500
X0000047500Y0000073000
X0000047500Y0000063000
X0000021500Y0000098000
X0000047500Y0000083000
X0000077000Y0000084500
X0000095000Y0000095000
X0000106500Y0000094000
X0000127500Y0000090000
X0000128500Y0000083000
X0000140000Y0000084000
X0000149000Y0000088000
X0000156500Y0000087500
X0000162000Y0000087500
X0000180000Y0000089000
X0000185000Y0000089000
X0000190000Y0000089000
X0000193500Y0000095000
X0000197500Y0000081500
X0000203500Y0000093500
X0000205000Y0000083000
X0000209500Y0000099000
X0000214500Y0000085000
X0000216500Y0000089000
X0000230000Y0000116000
X0000223110Y0000103110
X0000218500Y0000114000
X0000202500Y0000100500
X0000194500Y0000108500
X0000193500Y0000116000
X0000190000Y0000101500
X0000185000Y0000113000
X0000178500Y0000112000
X0000172000Y0000105000
X0000171500Y0000109000
X0000165500Y0000113500
X0000145500Y0000105000
X0000142000Y0000108000
X0000135500Y0000112500
X0000129000Y0000117000
X0000121500Y0000100000
X0000103000Y0000102000
X0000096000Y0000109000
X0000090000Y0000102500
X0000011000Y0000101500
X0000010000Y0000112098
X0000005500Y0000107000
X0000004098Y0000117500
X0000005000Y0000131500
X0000010000Y0000122902
X0000035000Y0000126000
X0000044500Y0000129000
X0000045000Y0000123000
X0000053000Y0000133150
X0000075650Y0000133150
X0000093500Y0000133150
X0000112000Y0000132500
X0000118000Y0000130500
X0000129000Y0000125000
X0000134000Y0000129000
X0000140000Y0000131500
X0000148000Y0000132000
X0000161000Y0000131500
X0000174000Y0000132000
X0000185000Y0000126500
X0000192500Y0000137500
X0000198000Y0000131000
X0000203000Y0000147500
X0000196339Y0000152500
X0000159000Y0000141850
X0000145000Y0000147500
X0000101650Y0000141850
X0000086000Y0000142000
X0000082000Y0000142500
X0000074500Y0000142000
X0000069500Y0000145000
X0000065500Y0000142500
T02
X0000030000Y0000008500
R06X0000010000
X0000167500Y0000010000
R02X0000010000
X0000117500Y0000050000
R03Y0000010000
X0000090000Y0000117500
R08X-0000010000
X0000040000Y0000150000
R02X0000010000
T03
X0000013500Y0000014000
X0000014000Y0000144000
X0000222000Y0000143500
X0000222500Y0000014000
T04
X0000124744Y0000019154
X0000140492Y0000019154
M30
