G04 ================== begin FILE IDENTIFICATION RECORD ==================*
G04 Layout Name:  esp8266-iot-pcb.brd*
G04 Film Name:    PASTE_TOP*
G04 File Format:  Gerber RS274X*
G04 File Origin:  Cadence Allegro -unreleased*
G04 Origin Date:  Tue Nov 19 02:41:03 2019*
G04 *
G04 Layer:  PACKAGE GEOMETRY/PASTEMASK_TOP*
G04 Layer:  PIN/PASTEMASK_TOP*
G04 Layer:  BOARD GEOMETRY/OUTLINE*
G04 Layer:  MANUFACTURING/PHOTOPLOT_OUTLINE*
G04 *
G04 Offset:    (0.00 0.00)*
G04 Mirror:    No*
G04 Mode:      Positive*
G04 Rotation:  0*
G04 FullContactRelief:  No*
G04 UndefLineWidth:     6.00*
G04 ================== end FILE IDENTIFICATION RECORD ====================*
%FSLAX55Y55*MOIN*%
%IR0*IPPOS*OFA0.00000B0.00000*MIA0B0*SFA1.00000B1.00000*%
%ADD17R,.1811X.04724*%
%ADD15R,.0748X.0748*%
%ADD22R,.08465X.1378*%
%ADD14R,.032X.035*%
%ADD11R,.031X.036*%
%ADD21R,.035X.032*%
%ADD19R,.05X.045*%
%ADD23R,.0374X.03661*%
%ADD18R,.08661X.04724*%
%ADD13R,.06693X.05118*%
%ADD12R,.07874X.04724*%
%ADD10R,.04724X.09449*%
%ADD20O,.02559X.07874*%
%ADD16R,.01575X.07874*%
%ADD24C,.006*%
G75*
%LPD*%
G75*
G54D10*
X50630Y32795D03*
X42756D03*
X34882D03*
Y95000D03*
X42756D03*
X50630D03*
X82126Y32795D03*
X74252D03*
X66378D03*
X58504D03*
Y95000D03*
X66378D03*
X74252D03*
X82126D03*
X90000Y32795D03*
Y95000D03*
G54D20*
X155000Y72115D03*
X160000D03*
X165000D03*
X155000Y95000D03*
X160000D03*
X165000D03*
X170000Y72115D03*
X175000D03*
X180000D03*
X185000D03*
X190000D03*
X170000Y95000D03*
X175000D03*
X180000D03*
X185000D03*
X190000D03*
G54D11*
X30000Y133150D03*
Y126850D03*
X40000Y133150D03*
Y126850D03*
X50000D03*
Y133150D03*
X80000D03*
Y126850D03*
X90000Y133150D03*
Y126850D03*
X97500Y148150D03*
Y141850D03*
X155000D03*
Y148150D03*
X227500Y61850D03*
Y68150D03*
Y81850D03*
Y88150D03*
G54D12*
X97087Y52480D03*
Y44606D03*
Y83976D03*
Y76102D03*
Y68228D03*
Y60354D03*
G54D21*
X149500Y105000D03*
X155500D03*
X162000D03*
X168000D03*
G54D13*
X106161Y147500D03*
X138839D03*
X163661D03*
X196339D03*
G54D22*
X189705Y45000D03*
G54D23*
X227500Y53110D03*
Y46890D03*
Y96890D03*
Y103110D03*
G54D14*
X90000Y148000D03*
Y142000D03*
X197500Y78000D03*
Y72000D03*
G54D24*
G01X9843Y0D02*
X226378D01*
G03X236220Y9843I0J9842D01*
G01Y147638D01*
G03X226378Y157480I-9842J0D01*
G01X9843D01*
G03X0Y147638I-1J-9842D01*
G01Y9843D01*
G03X9843Y0I9843J0D01*
G54D15*
X137343Y10689D03*
X127894D03*
X116870D03*
X148366D03*
G54D16*
X137736Y22500D03*
X135177D03*
X132618D03*
X130059D03*
X127500D03*
G54D17*
X141067Y120000D03*
X175933D03*
G54D18*
X165295Y35945D03*
Y45000D03*
Y54055D03*
G54D19*
X152500Y49000D03*
Y41000D03*
Y34000D03*
Y56000D03*
X205000Y78500D03*
Y71500D03*
M02*
