G04 ================== begin FILE IDENTIFICATION RECORD ==================*
G04 Layout Name:  esp8266-iot-pcb.brd*
G04 Film Name:    SILK_BOT*
G04 File Format:  Gerber RS274X*
G04 File Origin:  Cadence Allegro -unreleased*
G04 Origin Date:  Tue Nov 19 02:41:03 2019*
G04 *
G04 Layer:  BOARD GEOMETRY/SILKSCREEN_BOTTOM*
G04 Layer:  PACKAGE GEOMETRY/SILKSCREEN_BOTTOM*
G04 Layer:  REF DES/SILKSCREEN_BOTTOM*
G04 Layer:  BOARD GEOMETRY/OUTLINE*
G04 Layer:  MANUFACTURING/PHOTOPLOT_OUTLINE*
G04 *
G04 Offset:    (0.00 0.00)*
G04 Mirror:    No*
G04 Mode:      Positive*
G04 Rotation:  0*
G04 FullContactRelief:  No*
G04 UndefLineWidth:     6.00*
G04 ================== end FILE IDENTIFICATION RECORD ====================*
%FSLAX55Y55*MOIN*%
%IR0*IPPOS*OFA0.00000B0.00000*MIA0B0*SFA1.00000B1.00000*%
%ADD10C,.01*%
%ADD11C,.006*%
%ADD12C,.008*%
G75*
%LPD*%
G75*
G54D10*
G01X97000Y9500D02*
Y34000D01*
X23000D01*
Y9000D01*
G01X98500Y124500D02*
Y98500D01*
X2500D01*
Y124000D01*
G01X71500Y152500D02*
Y136500D01*
X30000D01*
Y152500D01*
G01X113000Y85500D02*
X136500D01*
Y44500D01*
X113500D01*
G54D11*
G01X9843Y0D02*
X226378D01*
G03X236220Y9843I0J9842D01*
G01Y147638D01*
G03X226378Y157480I-9842J0D01*
G01X9843D01*
G03X0Y147638I-1J-9842D01*
G01Y9843D01*
G03X9843Y0I9843J0D01*
G54D12*
G01X9750Y103800D02*
Y104800D01*
X8700D01*
X8350Y104500D01*
X8117Y104150D01*
X8000Y103650D01*
X8117Y103150D01*
X8350Y102800D01*
X8700Y102500D01*
X9108Y102300D01*
X9575Y102200D01*
X9983D01*
X10333Y102300D01*
X10742Y102500D01*
X11092Y102800D01*
X11325Y103100D01*
X11500Y103500D01*
Y103850D01*
X11383Y104250D01*
X11150Y104550D01*
G01X8000Y105850D02*
X11500D01*
X8000Y108150D01*
X11500D01*
G01X8000Y109400D02*
X11500D01*
Y110400D01*
X11325Y110800D01*
X11092Y111100D01*
X10742Y111350D01*
X10333Y111550D01*
X9750Y111600D01*
X9167Y111550D01*
X8758Y111350D01*
X8408Y111100D01*
X8175Y110800D01*
X8000Y110400D01*
Y109400D01*
G01X18700Y101400D02*
X18292Y101700D01*
X18058Y102100D01*
X18000Y102550D01*
X18058Y102950D01*
X18350Y103350D01*
X18700Y103600D01*
X19050Y103650D01*
X19458Y103550D01*
X19750Y103200D01*
X19867Y102850D01*
Y102400D01*
G01Y102850D02*
X20042Y103150D01*
X20333Y103400D01*
X20683Y103500D01*
X21033Y103400D01*
X21325Y103150D01*
X21500Y102700D01*
X21442Y102250D01*
X21208Y101800D01*
G01X21500Y104750D02*
X18000Y106000D01*
X21500Y107250D01*
G01X18700Y108400D02*
X18292Y108700D01*
X18058Y109100D01*
X18000Y109550D01*
X18058Y109950D01*
X18350Y110350D01*
X18700Y110600D01*
X19050Y110650D01*
X19458Y110550D01*
X19750Y110200D01*
X19867Y109850D01*
Y109400D01*
G01Y109850D02*
X20042Y110150D01*
X20333Y110400D01*
X20683Y110500D01*
X21033Y110400D01*
X21325Y110150D01*
X21500Y109700D01*
X21442Y109250D01*
X21208Y108800D01*
G01X30250Y20300D02*
Y21300D01*
X29200D01*
X28850Y21000D01*
X28617Y20650D01*
X28500Y20150D01*
X28617Y19650D01*
X28850Y19300D01*
X29200Y19000D01*
X29608Y18800D01*
X30075Y18700D01*
X30483D01*
X30833Y18800D01*
X31242Y19000D01*
X31592Y19300D01*
X31825Y19600D01*
X32000Y20000D01*
Y20350D01*
X31883Y20750D01*
X31650Y21050D01*
G01X28500Y22350D02*
X32000D01*
X28500Y24650D01*
X32000D01*
G01X28500Y25900D02*
X32000D01*
Y26900D01*
X31825Y27300D01*
X31592Y27600D01*
X31242Y27850D01*
X30833Y28050D01*
X30250Y28100D01*
X29667Y28050D01*
X29258Y27850D01*
X28908Y27600D01*
X28675Y27300D01*
X28500Y26900D01*
Y25900D01*
G01X39525Y20400D02*
X39233Y20700D01*
X39058Y21050D01*
X39000Y21500D01*
X39117Y21950D01*
X39350Y22300D01*
X39758Y22550D01*
X40225Y22600D01*
X40692Y22500D01*
X40983Y22250D01*
X41217Y21900D01*
X41275Y21550D01*
X41217Y21200D01*
X40983Y20750D01*
X42500Y20900D01*
Y22250D01*
G01Y23750D02*
X39000Y25000D01*
X42500Y26250D01*
G01X49000Y18750D02*
X52500Y20000D01*
X49000Y21250D01*
G01X50225Y20800D02*
Y19200D01*
G01X49000Y22400D02*
X52500D01*
Y23400D01*
X52325Y23800D01*
X52092Y24100D01*
X51742Y24350D01*
X51333Y24550D01*
X50750Y24600D01*
X50167Y24550D01*
X49758Y24350D01*
X49408Y24100D01*
X49175Y23800D01*
X49000Y23400D01*
Y22400D01*
G01X52208Y28100D02*
X52383Y27800D01*
X52500Y27450D01*
Y27050D01*
X52325Y26600D01*
X52033Y26250D01*
X51683Y26000D01*
X51100Y25800D01*
X50575Y25750D01*
X50050Y25850D01*
X49700Y26000D01*
X49350Y26300D01*
X49117Y26650D01*
X49000Y27000D01*
Y27350D01*
X49117Y27700D01*
X49292Y28000D01*
X49525Y28250D01*
G01X31500Y103000D02*
X28000D01*
G01X31500Y101850D02*
Y104150D01*
G01X28000Y105450D02*
X31500Y107550D01*
G01Y105450D02*
X28000Y107550D01*
G01Y108900D02*
X31500D01*
Y109900D01*
X31325Y110300D01*
X31092Y110600D01*
X30742Y110850D01*
X30333Y111050D01*
X29750Y111100D01*
X29167Y111050D01*
X28758Y110850D01*
X28408Y110600D01*
X28175Y110300D01*
X28000Y109900D01*
Y108900D01*
G01X38000Y102500D02*
X41500D01*
Y103750D01*
X41325Y104150D01*
X41092Y104400D01*
X40625Y104500D01*
X40158Y104400D01*
X39867Y104100D01*
X39692Y103750D01*
Y102500D01*
G01Y103750D02*
X38000Y104500D01*
G01Y105950D02*
X41500Y108050D01*
G01Y105950D02*
X38000Y108050D01*
G01Y109400D02*
X41500D01*
Y110400D01*
X41325Y110800D01*
X41092Y111100D01*
X40742Y111350D01*
X40333Y111550D01*
X39750Y111600D01*
X39167Y111550D01*
X38758Y111350D01*
X38408Y111100D01*
X38175Y110800D01*
X38000Y110400D01*
Y109400D01*
G01X52000Y102400D02*
Y103600D01*
G01Y103000D02*
X48500D01*
G01Y102400D02*
Y103600D01*
G01Y106500D02*
X48558Y106100D01*
X48792Y105750D01*
X49142Y105450D01*
X49550Y105250D01*
X50017Y105150D01*
X50483D01*
X50950Y105250D01*
X51358Y105450D01*
X51708Y105750D01*
X51942Y106100D01*
X52000Y106500D01*
X51942Y106900D01*
X51708Y107250D01*
X51358Y107550D01*
X50950Y107750D01*
X50483Y107850D01*
X50017D01*
X49550Y107750D01*
X49142Y107550D01*
X48792Y107250D01*
X48558Y106900D01*
X48500Y106500D01*
G01X49025Y108900D02*
X48733Y109200D01*
X48558Y109550D01*
X48500Y110000D01*
X48617Y110450D01*
X48850Y110800D01*
X49258Y111050D01*
X49725Y111100D01*
X50192Y111000D01*
X50483Y110750D01*
X50717Y110400D01*
X50775Y110050D01*
X50717Y109700D01*
X50483Y109250D01*
X52000Y109400D01*
Y110750D01*
G01X54600Y139500D02*
Y143000D01*
X53600D01*
X53200Y142825D01*
X52900Y142592D01*
X52650Y142242D01*
X52450Y141833D01*
X52400Y141250D01*
X52450Y140667D01*
X52650Y140258D01*
X52900Y139908D01*
X53200Y139675D01*
X53600Y139500D01*
X54600D01*
G01X51250D02*
X50000Y143000D01*
X48750Y139500D01*
G01X49200Y140725D02*
X50800D01*
G01X46500Y143000D02*
Y139500D01*
G01X47650Y143000D02*
X45350D01*
G01X40700Y141250D02*
X39700D01*
Y140200D01*
X40000Y139850D01*
X40350Y139617D01*
X40850Y139500D01*
X41350Y139617D01*
X41700Y139850D01*
X42000Y140200D01*
X42200Y140608D01*
X42300Y141075D01*
Y141483D01*
X42200Y141833D01*
X42000Y142242D01*
X41700Y142592D01*
X41400Y142825D01*
X41000Y143000D01*
X40650D01*
X40250Y142883D01*
X39950Y142650D01*
G01X38650Y139500D02*
Y143000D01*
X36350Y139500D01*
Y143000D01*
G01X35100Y139500D02*
Y143000D01*
X34100D01*
X33700Y142825D01*
X33400Y142592D01*
X33150Y142242D01*
X32950Y141833D01*
X32900Y141250D01*
X32950Y140667D01*
X33150Y140258D01*
X33400Y139908D01*
X33700Y139675D01*
X34100Y139500D01*
X35100D01*
G01X61500Y18900D02*
Y20100D01*
G01Y19500D02*
X58000D01*
G01Y18900D02*
Y20100D01*
G01Y23000D02*
X58058Y22600D01*
X58292Y22250D01*
X58642Y21950D01*
X59050Y21750D01*
X59517Y21650D01*
X59983D01*
X60450Y21750D01*
X60858Y21950D01*
X61208Y22250D01*
X61442Y22600D01*
X61500Y23000D01*
X61442Y23400D01*
X61208Y23750D01*
X60858Y24050D01*
X60450Y24250D01*
X59983Y24350D01*
X59517D01*
X59050Y24250D01*
X58642Y24050D01*
X58292Y23750D01*
X58058Y23400D01*
X58000Y23000D01*
G01Y26500D02*
X61500D01*
X60800Y25900D01*
G01X58000D02*
Y27100D01*
G01X59458Y29050D02*
X59867Y29400D01*
X60100Y29700D01*
X60217Y30100D01*
X60100Y30450D01*
X59867Y30700D01*
X59517Y30900D01*
X59108Y30950D01*
X58758Y30900D01*
X58408Y30700D01*
X58117Y30400D01*
X58000Y30050D01*
X58117Y29650D01*
X58467Y29300D01*
X58992Y29100D01*
X59575Y29050D01*
X60333Y29150D01*
X60742Y29300D01*
X61150Y29550D01*
X61442Y29900D01*
X61500Y30250D01*
X61383Y30600D01*
X61092Y30850D01*
G01X72500Y18900D02*
Y20100D01*
G01Y19500D02*
X69000D01*
G01Y18900D02*
Y20100D01*
G01Y23000D02*
X69058Y22600D01*
X69292Y22250D01*
X69642Y21950D01*
X70050Y21750D01*
X70517Y21650D01*
X70983D01*
X71450Y21750D01*
X71858Y21950D01*
X72208Y22250D01*
X72442Y22600D01*
X72500Y23000D01*
X72442Y23400D01*
X72208Y23750D01*
X71858Y24050D01*
X71450Y24250D01*
X70983Y24350D01*
X70517D01*
X70050Y24250D01*
X69642Y24050D01*
X69292Y23750D01*
X69058Y23400D01*
X69000Y23000D01*
G01Y26500D02*
X72500D01*
X71800Y25900D01*
G01X69000D02*
Y27100D01*
G01Y30600D02*
X72500D01*
X69992Y28750D01*
Y31250D01*
G01X82000Y18900D02*
Y20100D01*
G01Y19500D02*
X78500D01*
G01Y18900D02*
Y20100D01*
G01Y23000D02*
X78558Y22600D01*
X78792Y22250D01*
X79142Y21950D01*
X79550Y21750D01*
X80017Y21650D01*
X80483D01*
X80950Y21750D01*
X81358Y21950D01*
X81708Y22250D01*
X81942Y22600D01*
X82000Y23000D01*
X81942Y23400D01*
X81708Y23750D01*
X81358Y24050D01*
X80950Y24250D01*
X80483Y24350D01*
X80017D01*
X79550Y24250D01*
X79142Y24050D01*
X78792Y23750D01*
X78558Y23400D01*
X78500Y23000D01*
G01Y26500D02*
X82000D01*
X81300Y25900D01*
G01X78500D02*
Y27100D01*
G01X81417Y29050D02*
X81767Y29350D01*
X81942Y29700D01*
X82000Y30100D01*
X81883Y30600D01*
X81592Y30950D01*
X81242Y31050D01*
X80892Y31000D01*
X80600Y30800D01*
X80017Y29800D01*
X79608Y29350D01*
X79025Y29050D01*
X78500Y28950D01*
Y31050D01*
G01X61500Y102400D02*
Y103600D01*
G01Y103000D02*
X58000D01*
G01Y102400D02*
Y103600D01*
G01Y106500D02*
X58058Y106100D01*
X58292Y105750D01*
X58642Y105450D01*
X59050Y105250D01*
X59517Y105150D01*
X59983D01*
X60450Y105250D01*
X60858Y105450D01*
X61208Y105750D01*
X61442Y106100D01*
X61500Y106500D01*
X61442Y106900D01*
X61208Y107250D01*
X60858Y107550D01*
X60450Y107750D01*
X59983Y107850D01*
X59517D01*
X59050Y107750D01*
X58642Y107550D01*
X58292Y107250D01*
X58058Y106900D01*
X58000Y106500D01*
G01Y110600D02*
X61500D01*
X58992Y108750D01*
Y111250D01*
G01X72000Y102400D02*
Y103600D01*
G01Y103000D02*
X68500D01*
G01Y102400D02*
Y103600D01*
G01Y106500D02*
X68558Y106100D01*
X68792Y105750D01*
X69142Y105450D01*
X69550Y105250D01*
X70017Y105150D01*
X70483D01*
X70950Y105250D01*
X71358Y105450D01*
X71708Y105750D01*
X71942Y106100D01*
X72000Y106500D01*
X71942Y106900D01*
X71708Y107250D01*
X71358Y107550D01*
X70950Y107750D01*
X70483Y107850D01*
X70017D01*
X69550Y107750D01*
X69142Y107550D01*
X68792Y107250D01*
X68558Y106900D01*
X68500Y106500D01*
G01X72000Y110000D02*
X71883Y109600D01*
X71592Y109300D01*
X71242Y109100D01*
X70775Y108950D01*
X70250Y108900D01*
X69725Y108950D01*
X69258Y109100D01*
X68908Y109300D01*
X68617Y109600D01*
X68500Y110000D01*
X68617Y110400D01*
X68908Y110700D01*
X69258Y110900D01*
X69725Y111050D01*
X70250Y111100D01*
X70775Y111050D01*
X71242Y110900D01*
X71592Y110700D01*
X71883Y110400D01*
X72000Y110000D01*
G01X81500Y102400D02*
Y103600D01*
G01Y103000D02*
X78000D01*
G01Y102400D02*
Y103600D01*
G01Y106500D02*
X78058Y106100D01*
X78292Y105750D01*
X78642Y105450D01*
X79050Y105250D01*
X79517Y105150D01*
X79983D01*
X80450Y105250D01*
X80858Y105450D01*
X81208Y105750D01*
X81442Y106100D01*
X81500Y106500D01*
X81442Y106900D01*
X81208Y107250D01*
X80858Y107550D01*
X80450Y107750D01*
X79983Y107850D01*
X79517D01*
X79050Y107750D01*
X78642Y107550D01*
X78292Y107250D01*
X78058Y106900D01*
X78000Y106500D01*
G01X80917Y109050D02*
X81267Y109350D01*
X81442Y109700D01*
X81500Y110100D01*
X81383Y110600D01*
X81092Y110950D01*
X80742Y111050D01*
X80392Y111000D01*
X80100Y110800D01*
X79517Y109800D01*
X79108Y109350D01*
X78525Y109050D01*
X78000Y108950D01*
Y111050D01*
G01X67600Y140200D02*
X67300Y139792D01*
X66900Y139558D01*
X66450Y139500D01*
X66050Y139558D01*
X65650Y139850D01*
X65400Y140200D01*
X65350Y140550D01*
X65450Y140958D01*
X65800Y141250D01*
X66150Y141367D01*
X66600D01*
G01X66150D02*
X65850Y141542D01*
X65600Y141833D01*
X65500Y142183D01*
X65600Y142533D01*
X65850Y142825D01*
X66300Y143000D01*
X66750Y142942D01*
X67200Y142708D01*
G01X64250Y143000D02*
X63000Y139500D01*
X61750Y143000D01*
G01X60600Y140200D02*
X60300Y139792D01*
X59900Y139558D01*
X59450Y139500D01*
X59050Y139558D01*
X58650Y139850D01*
X58400Y140200D01*
X58350Y140550D01*
X58450Y140958D01*
X58800Y141250D01*
X59150Y141367D01*
X59600D01*
G01X59150D02*
X58850Y141542D01*
X58600Y141833D01*
X58500Y142183D01*
X58600Y142533D01*
X58850Y142825D01*
X59300Y143000D01*
X59750Y142942D01*
X60200Y142708D01*
G01X92500Y18900D02*
Y20100D01*
G01Y19500D02*
X89000D01*
G01Y18900D02*
Y20100D01*
G01Y23000D02*
X89058Y22600D01*
X89292Y22250D01*
X89642Y21950D01*
X90050Y21750D01*
X90517Y21650D01*
X90983D01*
X91450Y21750D01*
X91858Y21950D01*
X92208Y22250D01*
X92442Y22600D01*
X92500Y23000D01*
X92442Y23400D01*
X92208Y23750D01*
X91858Y24050D01*
X91450Y24250D01*
X90983Y24350D01*
X90517D01*
X90050Y24250D01*
X89642Y24050D01*
X89292Y23750D01*
X89058Y23400D01*
X89000Y23000D01*
G01Y26500D02*
X92500D01*
X91800Y25900D01*
G01X89000D02*
Y27100D01*
G01X89700Y28900D02*
X89292Y29200D01*
X89058Y29600D01*
X89000Y30050D01*
X89058Y30450D01*
X89350Y30850D01*
X89700Y31100D01*
X90050Y31150D01*
X90458Y31050D01*
X90750Y30700D01*
X90867Y30350D01*
Y29900D01*
G01Y30350D02*
X91042Y30650D01*
X91333Y30900D01*
X91683Y31000D01*
X92033Y30900D01*
X92325Y30650D01*
X92500Y30200D01*
X92442Y29750D01*
X92208Y29300D01*
G01X92000Y100900D02*
Y102100D01*
G01Y101500D02*
X88500D01*
G01Y100900D02*
Y102100D01*
G01Y105000D02*
X88558Y104600D01*
X88792Y104250D01*
X89142Y103950D01*
X89550Y103750D01*
X90017Y103650D01*
X90483D01*
X90950Y103750D01*
X91358Y103950D01*
X91708Y104250D01*
X91942Y104600D01*
X92000Y105000D01*
X91942Y105400D01*
X91708Y105750D01*
X91358Y106050D01*
X90950Y106250D01*
X90483Y106350D01*
X90017D01*
X89550Y106250D01*
X89142Y106050D01*
X88792Y105750D01*
X88558Y105400D01*
X88500Y105000D01*
G01Y108500D02*
X92000D01*
X91300Y107900D01*
G01X88500D02*
Y109100D01*
G01X89025Y110900D02*
X88733Y111200D01*
X88558Y111550D01*
X88500Y112000D01*
X88617Y112450D01*
X88850Y112800D01*
X89258Y113050D01*
X89725Y113100D01*
X90192Y113000D01*
X90483Y112750D01*
X90717Y112400D01*
X90775Y112050D01*
X90717Y111700D01*
X90483Y111250D01*
X92000Y111400D01*
Y112750D01*
G01X132200Y49750D02*
X131200D01*
Y48700D01*
X131500Y48350D01*
X131850Y48117D01*
X132350Y48000D01*
X132850Y48117D01*
X133200Y48350D01*
X133500Y48700D01*
X133700Y49108D01*
X133800Y49575D01*
Y49983D01*
X133700Y50333D01*
X133500Y50742D01*
X133200Y51092D01*
X132900Y51325D01*
X132500Y51500D01*
X132150D01*
X131750Y51383D01*
X131450Y51150D01*
G01X130150Y48000D02*
Y51500D01*
X127850Y48000D01*
Y51500D01*
G01X126600Y48000D02*
Y51500D01*
X125600D01*
X125200Y51325D01*
X124900Y51092D01*
X124650Y50742D01*
X124450Y50333D01*
X124400Y49750D01*
X124450Y49167D01*
X124650Y48758D01*
X124900Y48408D01*
X125200Y48175D01*
X125600Y48000D01*
X126600D01*
G01X133050Y78967D02*
X132650Y78675D01*
X132200Y78500D01*
X131800D01*
X131400Y78675D01*
X131100Y78967D01*
X130950Y79375D01*
X131050Y79783D01*
X131300Y80133D01*
X131750Y80367D01*
X132350Y80483D01*
X132700Y80717D01*
X132850Y81125D01*
X132750Y81533D01*
X132500Y81825D01*
X132150Y82000D01*
X131800D01*
X131450Y81883D01*
X131150Y81592D01*
G01X129600Y78500D02*
Y82000D01*
X128600D01*
X128200Y81825D01*
X127900Y81592D01*
X127650Y81242D01*
X127450Y80833D01*
X127400Y80250D01*
X127450Y79667D01*
X127650Y79258D01*
X127900Y78908D01*
X128200Y78675D01*
X128600Y78500D01*
X129600D01*
G01X126250D02*
X125000Y82000D01*
X123750Y78500D01*
G01X124200Y79725D02*
X125800D01*
G01X132550Y68467D02*
X132150Y68175D01*
X131700Y68000D01*
X131300D01*
X130900Y68175D01*
X130600Y68467D01*
X130450Y68875D01*
X130550Y69283D01*
X130800Y69633D01*
X131250Y69867D01*
X131850Y69983D01*
X132200Y70217D01*
X132350Y70625D01*
X132250Y71033D01*
X132000Y71325D01*
X131650Y71500D01*
X131300D01*
X130950Y71383D01*
X130650Y71092D01*
G01X126900Y71208D02*
X127200Y71383D01*
X127550Y71500D01*
X127950D01*
X128400Y71325D01*
X128750Y71033D01*
X129000Y70683D01*
X129200Y70100D01*
X129250Y69575D01*
X129150Y69050D01*
X129000Y68700D01*
X128700Y68350D01*
X128350Y68117D01*
X128000Y68000D01*
X127650D01*
X127300Y68117D01*
X127000Y68292D01*
X126750Y68525D01*
G01X125500Y71500D02*
Y68000D01*
X123500D01*
G01X133600Y59200D02*
X133300Y58792D01*
X132900Y58558D01*
X132450Y58500D01*
X132050Y58558D01*
X131650Y58850D01*
X131400Y59200D01*
X131350Y59550D01*
X131450Y59958D01*
X131800Y60250D01*
X132150Y60367D01*
X132600D01*
G01X132150D02*
X131850Y60542D01*
X131600Y60833D01*
X131500Y61183D01*
X131600Y61533D01*
X131850Y61825D01*
X132300Y62000D01*
X132750Y61942D01*
X133200Y61708D01*
G01X130250Y62000D02*
X129000Y58500D01*
X127750Y62000D01*
G01X126600Y59200D02*
X126300Y58792D01*
X125900Y58558D01*
X125450Y58500D01*
X125050Y58558D01*
X124650Y58850D01*
X124400Y59200D01*
X124350Y59550D01*
X124450Y59958D01*
X124800Y60250D01*
X125150Y60367D01*
X125600D01*
G01X125150D02*
X124850Y60542D01*
X124600Y60833D01*
X124500Y61183D01*
X124600Y61533D01*
X124850Y61825D01*
X125300Y62000D01*
X125750Y61942D01*
X126200Y61708D01*
M02*
