G04 ================== begin FILE IDENTIFICATION RECORD ==================*
G04 Layout Name:  esp8266-iot-pcb.brd*
G04 Film Name:    TOP*
G04 File Format:  Gerber RS274X*
G04 File Origin:  Cadence Allegro -unreleased*
G04 Origin Date:  Tue Nov 19 02:41:03 2019*
G04 *
G04 Layer:  ETCH/TOP*
G04 Layer:  PIN/TOP*
G04 Layer:  VIA CLASS/TOP*
G04 Layer:  BOARD GEOMETRY/OUTLINE*
G04 Layer:  MANUFACTURING/PHOTOPLOT_OUTLINE*
G04 *
G04 Offset:    (0.00 0.00)*
G04 Mirror:    No*
G04 Mode:      Positive*
G04 Rotation:  0*
G04 FullContactRelief:  No*
G04 UndefLineWidth:     6.00*
G04 ================== end FILE IDENTIFICATION RECORD ====================*
%FSLAX55Y55*MOIN*%
%IR0*IPPOS*OFA0.00000B0.00000*MIA0B0*SFA1.00000B1.00000*%
%ADD11C,.024*%
%ADD20C,.02362*%
%ADD23R,.1811X.04724*%
%ADD22C,.05906*%
%ADD19R,.0748X.0748*%
%ADD12C,.06299*%
%ADD28R,.08465X.1378*%
%ADD13R,.06299X.06299*%
%ADD18R,.032X.035*%
%ADD15R,.031X.036*%
%ADD27R,.035X.032*%
%ADD25R,.05X.045*%
%ADD10C,.23622*%
%ADD29R,.0374X.03661*%
%ADD24R,.08661X.04724*%
%ADD17R,.06693X.05118*%
%ADD16R,.07874X.04724*%
%ADD14R,.04724X.09449*%
%ADD26O,.02559X.07874*%
%ADD21R,.01575X.07874*%
%ADD30C,.01*%
%ADD31C,.02*%
%ADD32C,.03*%
%ADD33C,.04*%
%ADD34C,.015*%
%ADD35C,.025*%
%ADD36C,.006*%
G75*
%LPD*%
G75*
G36*
G01X3220Y32000D02*
X28768D01*
G02X30018Y30750I0J-1250D01*
G01Y28070D01*
G03X32520Y25568I2502J0D01*
G01X39004D01*
G02X40254Y24318I0J-1250D01*
G01Y15744D01*
G03X40270Y15469I2502J8D01*
G01X39496Y14472D01*
G02X38778Y14017I-988J765D01*
G03X36375Y12835I1222J-5517D01*
G01X36232Y12716D01*
X35892Y12571D01*
X34141Y12382D01*
X33778Y12451D01*
X33613Y12537D01*
G03X33150Y12651I-464J-887D01*
G01X29063D01*
G02X27813Y13901I0J1250D01*
G01Y13909D01*
Y14000D01*
G03X13500Y28313I-14313J0D01*
G03X5813Y26073I1J-14313D01*
G01X5523Y25889D01*
X4841Y25867D01*
X2619Y27086D01*
G02X1970Y28182I601J1096D01*
G01Y30750D01*
G02X3220Y32000I1250J0D01*
G37*
G36*
G01X5599Y132406D02*
X5887Y132208D01*
G03X14000Y129687I8112J11792D01*
G03X23839Y133605I0J14313D01*
G01X24013Y133770D01*
X24459Y133947D01*
X24698D01*
G02X25948Y132697I0J-1250D01*
G01Y131350D01*
G03X26116Y130450I2502J1D01*
G02Y129550I-1166J-450D01*
G03X25948Y128650I2334J-901D01*
G01Y125050D01*
G03X26280Y123805I2502J0D01*
G02X26440Y123062I-1084J-622D01*
G01X26361Y122255D01*
G02X26002Y121493I-1244J121D01*
G03X25906Y121395I3988J-4003D01*
G01X24599D01*
G02X23766Y121713I0J1250D01*
G03X20000Y123151I-3766J-4212D01*
G03X16375Y121835I0J-5651D01*
G01X16232Y121716D01*
X15892Y121571D01*
X14141Y121382D01*
X13778Y121451D01*
X13613Y121537D01*
G03X13150Y121651I-464J-887D01*
G01X6850D01*
G03X5849Y120650I0J-1002D01*
G01Y114350D01*
G03X6850Y113349I1001J1D01*
G01X13150D01*
G03X13613Y113463I-1J1001D01*
G01X13778Y113549D01*
X14141Y113618D01*
X15892Y113429D01*
X16232Y113284D01*
X16375Y113165D01*
G03X20000Y111849I3625J4335D01*
G03X23466Y113037I0J5650D01*
G02X24233Y113300I767J-987D01*
G01X25767D01*
G02X26534Y113037I0J-1250D01*
G03X29917Y111850I3466J4463D01*
G01X30164Y111846D01*
X30616Y111653D01*
X32021Y110227D01*
G02X32380Y109350I-891J-877D01*
G01Y102825D01*
X31950Y102191D01*
X31593Y102049D01*
G03X30018Y99724I927J-2324D01*
G01Y97250D01*
G02X28768Y96000I-1250J0D01*
G01X3220D01*
G02X1970Y97250I0J1250D01*
G01Y130149D01*
G02X2638Y131255I1250J0D01*
G01X4906Y132447D01*
X5599Y132406D01*
G37*
G36*
G01X84488Y87774D02*
G03X86345Y88599I0J2502D01*
G02X86749Y88896I927J-838D01*
G01X87573Y89276D01*
G03X87638Y89274I63J1000D01*
G01X88168D01*
G02X89089Y88868I-1J-1250D01*
G01X90512Y87316D01*
X90681Y86818D01*
X90658Y86556D01*
G03X90648Y86338I2492J-224D01*
G01Y81614D01*
G03X90880Y80564I2502J2D01*
G02Y79514I-1135J-525D01*
G03X90648Y78464I2270J-1052D01*
G01Y73740D01*
G03X90880Y72690I2502J2D01*
G02Y71640I-1135J-525D01*
G03X90648Y70590I2270J-1052D01*
G01Y65866D01*
G03X90880Y64816I2502J2D01*
G02Y63766I-1135J-525D01*
G03X90648Y62716I2270J-1052D01*
G01Y57992D01*
G03X90880Y56942I2502J2D01*
G02Y55892I-1135J-525D01*
G03X90648Y54842I2270J-1052D01*
G01Y50118D01*
G03X90880Y49068I2502J2D01*
G02Y48018I-1135J-525D01*
G03X90648Y46968I2270J-1052D01*
G01Y42244D01*
G03X90734Y41596I2502J2D01*
G01X90777Y41436D01*
Y41272D01*
G02X89527Y40022I-1250J0D01*
G01X70294D01*
X69604Y40584D01*
X69515Y41021D01*
G03X63241I-3137J-643D01*
G01X63152Y40584D01*
X62462Y40022D01*
X53234D01*
X52730Y40257D01*
X52552Y40471D01*
G03X52399Y40639I-1924J-1599D01*
G01X50769Y42269D01*
G03X49000Y43002I-1769J-1768D01*
G01X41718D01*
X41375Y43102D01*
X41224Y43198D01*
G03X39500Y43702I-1724J-2697D01*
G03X38076Y43368I0J-3203D01*
G02X37520Y43238I-555J1120D01*
G01X36862D01*
G02X36306Y43368I-1J1250D01*
G03X34948Y43701I-1423J-2868D01*
G01X34702Y43706D01*
X34253Y43900D01*
X32857Y45326D01*
G02X32500Y46201I893J875D01*
G01Y86524D01*
G02X33750Y87774I1250J0D01*
G01X84488D01*
G37*
G36*
G01X28194Y155511D02*
X34892D01*
G02X36142Y154261I0J-1250D01*
G01Y153931D01*
X35980Y153644D01*
G03X35849Y153150I870J-495D01*
G01Y146850D01*
G03X36850Y145849I1001J1D01*
G01X43150D01*
G03X43613Y145963I-1J1001D01*
G01X43778Y146049D01*
X44141Y146118D01*
X45892Y145929D01*
X46232Y145784D01*
X46375Y145665D01*
G03X50000Y144349I3625J4335D01*
G03X51182Y144474I0J5651D01*
G01X51493Y144541D01*
X52102Y144361D01*
X53632Y142830D01*
G02X53998Y141946I-884J-884D01*
G01Y138505D01*
G02X52748Y137255I-1250J0D01*
G01X52543D01*
X52349Y137320D01*
G03X51550Y137452I-802J-2370D01*
G01X48450D01*
G03X46173Y135985I0J-2501D01*
G02X44473Y135385I-1138J517D01*
G03X44414Y135414I-1133J-2230D01*
G02X43814Y136014I531J1131D01*
G03X41550Y137452I-2264J-1063D01*
G01X38450D01*
G03X36724Y136761I0J-2501D01*
G01X36550Y136595D01*
X36103Y136416D01*
X33897D01*
X33450Y136595D01*
X33276Y136761D01*
G03X31550Y137452I-1726J-1810D01*
G01X30318D01*
G02X29334Y137931I0J1250D01*
G01X27942Y139710D01*
X27822Y140273D01*
X27892Y140553D01*
G03X28313Y144000I-13892J3446D01*
G03X26084Y151671I-14314J0D01*
G01X25900Y151960D01*
X25879Y152643D01*
X27099Y154863D01*
G02X28194Y155511I1095J-602D01*
G37*
G36*
G01X67574D02*
X208136D01*
G02X209235Y154857I0J-1250D01*
G01X209238Y154850D01*
X210435Y152578D01*
X210394Y151884D01*
X210197Y151597D01*
G03X207687Y143501I11803J-8096D01*
G01Y143500D01*
G03X222000Y129187I14313J0D01*
G03X230301Y131840I0J14313D01*
G01X230302Y131841D01*
G02X231599Y131933I724J-1019D01*
G01X233573Y130915D01*
G02X233618Y130891I-566J-1115D01*
G02X234251Y129807I-617J-1087D01*
G01Y109339D01*
G02X233641Y108265I-1250J0D01*
G01X231511Y106996D01*
X230852Y106983D01*
X230561Y107140D01*
G03X229370Y107442I-1191J-2199D01*
G01X225630D01*
G03X223839Y106686I1J-2501D01*
G02X222990Y106310I-895J873D01*
G03X221230Y105702I120J-3200D01*
G01X221049Y105570D01*
X220621Y105450D01*
X218779Y105596D01*
G02X217994Y105958I99J1246D01*
G01X179626Y144326D01*
G03X177150Y145352I-2476J-2475D01*
G01X170759D01*
G02X169509Y146602I0J1250D01*
G01Y150059D01*
G03X167008Y152560I-2501J0D01*
G01X160313D01*
G03X159300Y152346I-1J-2501D01*
G01X159200Y152301D01*
X158826Y152209D01*
G02X158563Y152173I-300J1214D01*
G01X158043Y152158D01*
X157742Y152149D01*
G03X156550Y152452I-1193J-2199D01*
G01X153450D01*
G03X151315Y151252I1J-2501D01*
G01X151314Y151251D01*
X151313Y151249D01*
G02X150859Y150813I-1065J654D01*
G01X150858Y150812D01*
G02X150246Y150652I-612J1090D01*
G01X150150D01*
G03X148381Y149919I0J-2501D01*
G01X145320Y146858D01*
G02X143958Y146588I-883J885D01*
G01X143608Y146732D01*
X143187Y147363D01*
Y150059D01*
G03X142186Y151060I-1001J0D01*
G01X135492D01*
G03X134491Y150059I0J-1001D01*
G01Y144941D01*
G03X135492Y143940I1001J0D01*
G01X142187D01*
G03X142658Y144058I-1J1001D01*
G01X142795Y144131D01*
X142944Y144168D01*
G02X144017Y143941I304J-1212D01*
G01X144245Y143764D01*
X144498Y143245D01*
Y142554D01*
G02X144132Y141670I-1250J0D01*
G01X143330Y140868D01*
G02X142446Y140502I-884J884D01*
G01X114117D01*
G02X113076Y141060I0J1250D01*
G01X111924Y142794D01*
G02X111813Y143971I1041J692D01*
G03X112009Y144941I-2305J971D01*
G01Y150059D01*
G03X109508Y152560I-2501J0D01*
G01X102813D01*
G03X101800Y152346I-1J-2501D01*
G01X101700Y152301D01*
X101326Y152209D01*
G02X101063Y152173I-300J1214D01*
G01X100543Y152158D01*
X100242Y152149D01*
G03X99050Y152452I-1193J-2199D01*
G01X95950D01*
G03X94746Y152142I2J-2502D01*
G01X94632Y152080D01*
X94201Y151948D01*
G02X93893Y151895I-364J1196D01*
G01X93433Y151874D01*
G02X93092Y151905I-58J1248D01*
G01X92716Y151992D01*
X92609Y152039D01*
G03X91600Y152252I-1010J-2289D01*
G01X88400D01*
G03X86284Y151085I0J-2502D01*
G01X86112Y150812D01*
X85549Y150502D01*
X80500D01*
G03X78731Y149769I0J-2501D01*
G01X74426Y145464D01*
G02X74141Y145251I-883J884D01*
G01X73986Y145166D01*
X73811Y145127D01*
X73810D01*
G03X71298Y142000I690J-3127D01*
G03X72129Y139848I3202J0D01*
G01X72465Y139478D01*
X72441Y138479D01*
X68231Y134269D01*
G03X67498Y132500I1768J-1769D01*
G01Y122973D01*
X67195Y122416D01*
X66928Y122243D01*
G03X66534Y121963I3073J-4742D01*
G02X65774Y121700I-767J987D01*
G01X64233D01*
X64226D01*
G02X63466Y121963I7J1250D01*
G03X60821Y123091I-3466J-4463D01*
G01X60626Y123119D01*
X60071Y123394D01*
G02X59725Y123646I552J1122D01*
G01X59353Y124032D01*
G02X59002Y124900I899J869D01*
G01Y142600D01*
G02X59353Y143468I1250J-1D01*
G01X59725Y143854D01*
G02X60071Y144106I898J-870D01*
G01X60626Y144381D01*
X60821Y144409D01*
G03X65651Y150000I-821J5591D01*
G03X65251Y152087I-5649J-1D01*
G01X65136Y152376D01*
X65204Y152993D01*
X66540Y154963D01*
G02X66989Y155365I1034J-703D01*
G02X67574Y155511I586J-1104D01*
G37*
G36*
G01X82054Y145498D02*
X85549D01*
X86112Y145188D01*
X86284Y144915D01*
G03X86899Y144249I2115J1336D01*
G01X87135Y144072D01*
X87398Y143545D01*
Y141752D01*
G02X86148Y140502I-1250J-1D01*
G01X79556D01*
G02X78402Y141273I0J1250D01*
G01X78257Y141623D01*
X78405Y142367D01*
X81170Y145132D01*
G02X82054Y145498I884J-884D01*
G37*
G36*
G01X116364Y23305D02*
X119805Y19864D01*
G03X120689Y19498I884J884D01*
G01X121554D01*
X122232Y18968D01*
X122336Y18550D01*
G03X122345Y18513I2417J568D01*
G01X122423Y18230D01*
X122313Y17657D01*
X122135Y17424D01*
G02X121141Y16931I-995J757D01*
G01X113130D01*
G03X110628Y14429I0J-2502D01*
G01Y6949D01*
G03X110957Y5709I2501J0D01*
G01X111123Y5419D01*
X111120Y4750D01*
X109864Y2592D01*
G02X108784Y1970I-1081J628D01*
G01X97084D01*
G02X96053Y2512I-1J1250D01*
G01X96026Y2552D01*
X94750Y4750D01*
X94747Y5416D01*
X94912Y5706D01*
G03X95651Y8500I-4912J2794D01*
G03X90000Y14151I-5651J0D01*
G03X88819Y14026I1J-5651D01*
G01X88818D01*
G02X87674Y14364I-261J1222D01*
G01X84994Y17044D01*
G02X84628Y17928I884J884D01*
G01Y24318D01*
G02X85878Y25568I1250J0D01*
G01X92362D01*
G03X94834Y27682I0J2502D01*
G02X95188Y28375I1235J-194D01*
G01X95925Y29106D01*
X96381Y29294D01*
X96500D01*
G03Y36296I0J3501D01*
G01X96114D01*
G02X94864Y37537I0J1250D01*
G03X94793Y38112I-2502J-17D01*
G01X94776Y38180D01*
X94756Y38332D01*
G02X95057Y39318I1240J160D01*
G01X95235Y39520D01*
X95725Y39742D01*
X101024D01*
G03X103526Y42244I0J2502D01*
G01Y46968D01*
G03X103335Y47926I-2502J-1D01*
G01Y47927D01*
X103293Y48029D01*
X103239Y48272D01*
X103209Y48543D01*
Y48680D01*
X103293Y49057D01*
X103335Y49159D01*
Y49160D01*
G03X103526Y50118I-2311J959D01*
G01Y54842D01*
G03X103335Y55800I-2502J-1D01*
G01Y55801D01*
X103293Y55903D01*
X103239Y56146D01*
X103209Y56417D01*
Y56554D01*
X103293Y56931D01*
X103335Y57033D01*
Y57034D01*
G03X103526Y57992I-2311J959D01*
G01Y62716D01*
G03X103335Y63674I-2502J-1D01*
G01Y63675D01*
X103293Y63777D01*
X103239Y64020D01*
X103209Y64291D01*
Y64428D01*
X103293Y64805D01*
X103335Y64907D01*
Y64908D01*
G03X103526Y65866I-2311J959D01*
G01Y70590D01*
G03X103335Y71548I-2502J-1D01*
G01Y71549D01*
X103293Y71651D01*
X103239Y71894D01*
X103209Y72165D01*
Y72302D01*
X103293Y72679D01*
X103335Y72781D01*
Y72782D01*
G03X103526Y73740I-2311J959D01*
G01Y78464D01*
G03X103335Y79422I-2502J-1D01*
G01Y79423D01*
X103293Y79525D01*
X103239Y79768D01*
X103209Y80039D01*
Y80176D01*
X103293Y80553D01*
X103335Y80655D01*
Y80656D01*
G03X103526Y81614I-2311J959D01*
G01Y86338D01*
G03X101024Y88840I-2502J0D01*
G01X94606D01*
G02X93356Y90090I0J1250D01*
G01Y90151D01*
X93360Y90204D01*
G03X93364Y90276I-997J91D01*
G01Y99724D01*
G03X92362Y100726I-1002J0D01*
G01X87844D01*
G02X87320Y100841I0J1250D01*
G01X86518Y101211D01*
X86346Y101401D01*
Y101402D01*
G03X85415Y102049I-1857J-1678D01*
G01X85058Y102191D01*
X84628Y102826D01*
Y107949D01*
G02X84652Y108191I1250J-2D01*
G01X84682Y108345D01*
G02X85025Y108987I1226J-243D01*
G01X87646Y111608D01*
G02X88530Y111974I884J-884D01*
G01X88813D01*
X88930Y111951D01*
G03X89998Y111849I1069J5549D01*
G01X90000D01*
G03X95651Y117500I0J5651D01*
G03X94129Y121358I-5651J0D01*
G01X94128Y121359D01*
X93995Y121502D01*
X93639Y122254D01*
X93618Y122471D01*
X93541Y123258D01*
X93585Y123455D01*
X93626Y123642D01*
X93721Y123807D01*
G03X94052Y125050I-2168J1243D01*
G01Y128650D01*
G03X93052Y130650I-2500J0D01*
G02X92552Y131650I750J1000D01*
G01Y134248D01*
G02X93802Y135498I1250J0D01*
G01X144000D01*
G03X145769Y136231I0J2501D01*
G01X148769Y139231D01*
G03X148829Y139294I-1781J1756D01*
G01X148989Y139467D01*
X149202Y139571D01*
X149299Y139618D01*
G02X150001Y139737I551J-1122D01*
G01X150305Y139700D01*
X151234Y139063D01*
X151447Y138551D01*
G03X153450Y137548I2003J1499D01*
G01X156550D01*
G03X158019Y138026I-2J2502D01*
G01X158064Y138059D01*
X158099Y138086D01*
G02X158865Y138348I766J-988D01*
G01X175182D01*
G02X176066Y137982I0J-1250D01*
G01X187358Y126690D01*
G02X187707Y125604I-884J-883D01*
G01X187659Y125307D01*
X187301Y124823D01*
X187029Y124687D01*
G02X185978Y124659I-556J1120D01*
G03X184988Y124864I-992J-2297D01*
G01X166878D01*
G03X164555Y123289I0J-2501D01*
G01X164413Y122932D01*
X163778Y122502D01*
X162500D01*
G03X160731Y121769I0J-2501D01*
G01X159384Y120422D01*
G02X157616I-884J884D01*
G01X156322Y121716D01*
G02X156304Y121734I875J893D01*
G03X154501Y122502I-1804J-1734D01*
G01X153606D01*
G02X152445Y123289I0J1250D01*
G03X150122Y124864I-2323J-926D01*
G01X132012D01*
G03X129510Y122362I0J-2502D01*
G01Y117638D01*
G03X132012Y115136I2502J0D01*
G01X150122D01*
G03X152303Y116413I0J2501D01*
G01X152387Y116563D01*
X153322Y117498D01*
X153464D01*
X154632Y116330D01*
G02X154998Y115446I-884J-884D01*
G01Y110869D01*
Y110846D01*
G02X154754Y110126I-1250J22D01*
G02X154632Y109985I-1004J745D01*
G01X153930Y109283D01*
X153572Y109103D01*
X153375Y109073D01*
G03X151749Y108102I374J-2473D01*
G01X151748Y108101D01*
G02X150749Y107602I-999J751D01*
G01X147750D01*
G03X146748Y106600I0J-1002D01*
G01Y103400D01*
G03X147750Y102398I1002J0D01*
G01X150730D01*
G02X150780Y102397I0J-1250D01*
G02X151942Y101458I-49J-1249D01*
G02X151979Y101208I-1212J-307D01*
G01X152009Y100592D01*
G02X151960Y100180I-1249J-60D01*
G01X151823Y99713D01*
X151744Y99579D01*
G03X151219Y97658I3256J-1922D01*
G01Y92342D01*
G03X156764Y88998I3781J0D01*
G01X156889Y89064D01*
X157180Y89141D01*
G02X157820I320J-1208D01*
G01X158111Y89064D01*
X158236Y88998D01*
G03X161840Y89040I1763J3345D01*
G01X161979Y89118D01*
X162288Y89198D01*
X162529D01*
G02X163398Y88846I0J-1250D01*
G03X163406Y88839I1519J1727D01*
G01X163509Y88736D01*
X163698Y88278D01*
Y87472D01*
G02X163332Y86588I-1250J0D01*
G01X163034Y86290D01*
G02X162150Y85924I-884J884D01*
G01X149121D01*
G03X147494Y85249I1J-2301D01*
G01X135751Y73506D01*
G03X135076Y71879I1626J-1628D01*
G01Y42849D01*
G02X134710Y41965I-1250J0D01*
G01X128432Y35686D01*
G03X127761Y34184I1627J-1628D01*
G01X127734Y33687D01*
X127011Y33002D01*
X119189D01*
G03X118305Y32636I0J-1250D01*
G01X116364Y30695D01*
G03X115998Y29811I884J-884D01*
G01Y24189D01*
G03X116364Y23305I1250J0D01*
G37*
G36*
G01X119500Y31000D02*
X126500D01*
X127758Y29742D01*
Y27746D01*
G03X127374Y27075I1512J-1311D01*
G01X127329Y26938D01*
X126712D01*
G03X126211Y26437I0J-501D01*
G01Y21500D01*
X121000D01*
X118000Y24500D01*
Y29500D01*
X119500Y31000D01*
G37*
G36*
G01X195026Y1970D02*
G02X193990Y2554I22J1250D01*
G02X193974Y2580I1056J668D01*
G01X192902Y4379D01*
G02X192765Y5326I1074J639D01*
G01X192846Y5647D01*
X192901Y5762D01*
G03X193151Y6850I-2251J1090D01*
G01Y13150D01*
G03X190650Y15651I-2502J-1D01*
G01X184350D01*
G03X182710Y15038I0J-2502D01*
G01X182568Y14914D01*
X182223Y14762D01*
X181244Y14647D01*
G02X180448Y14821I-146J1242D01*
G01X180447Y14822D01*
G03X177500Y15651I-2947J-4824D01*
G03X174176Y14570I1J-5653D01*
G01X174024Y14460D01*
X173463Y14268D01*
G02X173058Y14200I-407J1182D01*
G01X171942D01*
G02X171537Y14268I2J1250D01*
G01X170976Y14460D01*
X170824Y14570D01*
G03X167500Y15651I-3325J-4572D01*
G03X161849Y10000I0J-5651D01*
G03X163349Y6167I5650J1D01*
G01Y6166D01*
X163350D01*
G02X163576Y4818I-919J-847D01*
G01X162657Y2719D01*
G02X161512Y1970I-1145J501D01*
G01X156451D01*
G02X155371Y2592I1J1250D01*
G01X154284Y4461D01*
G02X154279Y5708I1081J628D01*
G01Y5709D01*
G03X154608Y6949I-2172J1240D01*
G01Y14429D01*
G03X152106Y16931I-2502J0D01*
G01X145468D01*
G02X144610Y17272I0J1250D01*
G01X143361Y18452D01*
G02X142971Y19291I858J909D01*
G01Y19292D01*
G03X141031Y21578I-2479J-138D01*
G01X140846Y21619D01*
X140516Y21808D01*
X139860Y22514D01*
G02X139736Y22670I913J853D01*
G02X139526Y23319I1039J695D01*
G02X139525Y23366I1249J50D01*
G01Y26437D01*
G03X138524Y27438I-1001J0D01*
G01X138257D01*
G03X136597Y28857I-2292J-1001D01*
G01X136445Y28897D01*
X135967Y29162D01*
G02X135665Y29396I606J1094D01*
G01X135262Y29821D01*
G02X134920Y30681I908J859D01*
G01Y32146D01*
G02X135286Y33030I1250J0D01*
G01X141127Y38872D01*
G03X141802Y40499I-1626J1628D01*
G01Y47324D01*
G02X143052Y48574I1250J0D01*
G01X143443D01*
X144084Y48130D01*
X144222Y47765D01*
G03X144826Y46738I3277J1236D01*
G03X144950Y46599I2675J2261D01*
G01X145087Y46452D01*
X145258Y46047D01*
X145344Y44398D01*
G02X145281Y43938I-1248J-63D01*
G01X145108Y43419D01*
X145007Y43273D01*
G03X144301Y41141I3293J-2273D01*
G01X144296Y41000D01*
X144301Y40859D01*
G03X147709Y37042I3999J141D01*
G01X147857Y37020D01*
X148219Y36873D01*
G02X148998Y35715I-471J-1158D01*
G01Y31750D01*
G03X150000Y30748I1002J0D01*
G01X155000D01*
G03X156002Y31750I0J1002D01*
G01Y32323D01*
G02X156774Y33478I1250J0D01*
G01X157125Y33623D01*
X157867Y33475D01*
X158226Y33116D01*
G03X158381Y32969I2830J2829D01*
G02X158645Y32633I-836J-929D01*
G02X158684Y32554I-1101J-593D01*
G03X160964Y31082I2280J1029D01*
G01X169626D01*
G03X172127Y33583I0J2501D01*
G01Y38307D01*
G03X172125Y38401I-2501J-6D01*
G02X172133Y38597I1249J47D01*
G02X172434Y39274I1241J-146D01*
G02X172473Y39317I945J-818D01*
G01X173722Y40615D01*
G02X173754Y40647I900J-868D01*
G02X174570Y40997I869J-899D01*
G02X174622Y40998I50J-1249D01*
G01X181721D01*
G02X182605Y40632I0J-1250D01*
G01X182781Y40456D01*
X182971Y39997D01*
Y38110D01*
G03X185472Y35608I2502J0D01*
G01X193938D01*
G03X196439Y38110I-1J2502D01*
G01Y51890D01*
G03X193938Y54392I-2502J0D01*
G01X185472D01*
G03X182971Y51890I1J-2502D01*
G01Y50252D01*
G02X181721Y49002I-1250J0D01*
G01X172018D01*
G02X171223Y49287I0J1250D01*
G01X171222Y49288D01*
G03X171201Y49306I-1638J-1890D01*
G01X171117Y49373D01*
X170868Y49657D01*
G02X170719Y49867I940J825D01*
G01X170575Y50123D01*
G02X170532Y51267I1089J614D01*
G03X170627Y51692I-907J426D01*
G01Y56417D01*
G03X169626Y57418I-1001J0D01*
G01X160964D01*
G03X159963Y56417I0J-1001D01*
G01Y52901D01*
G02X159308Y51801I-1250J-1D01*
G02X158029Y51854I-595J1100D01*
G01X158013Y51865D01*
G03X157737Y52041I-2019J-2861D01*
G01X157611Y52113D01*
X157142Y52549D01*
X157064Y52663D01*
G03X156502Y53250I-2064J-1413D01*
G02X156002Y54250I750J1000D01*
G01Y58250D01*
G03X155000Y59252I-1002J0D01*
G01X150000D01*
G03X148998Y58250I0J-1002D01*
G01Y54250D01*
G02X148498Y53250I-1250J0D01*
G03X147834Y52502I1501J-2001D01*
G01X147500D01*
G03X145600Y51942I0J-3503D01*
G02X145587Y51934I-662J1060D01*
G01X145343Y51780D01*
X144662Y51761D01*
X142448Y52983D01*
G02X142444Y52985I557J1119D01*
G02X141803Y54035I608J1092D01*
G02X141802Y54077I1249J51D01*
G01Y69529D01*
G02X142168Y70413I1250J0D01*
G01X149573Y77819D01*
G02X151251Y77901I884J-884D01*
G01X151584Y77627D01*
X151771Y76787D01*
X151586Y76398D01*
G03X151219Y74774I3414J-1625D01*
G01Y69457D01*
G03X156764Y66113I3781J0D01*
G01X156889Y66179D01*
X157180Y66256D01*
G02X157820I320J-1208D01*
G01X158111Y66179D01*
X158236Y66113D01*
G03X161764I1764J3345D01*
G01X161889Y66179D01*
X162180Y66256D01*
G02X162820I320J-1208D01*
G01X163111Y66179D01*
X163236Y66113D01*
G03X166764I1764J3345D01*
G01X166889Y66179D01*
X167180Y66256D01*
G02X167820I320J-1208D01*
G01X168111Y66179D01*
X168236Y66113D01*
G03X171764I1764J3345D01*
G01X171889Y66179D01*
X172180Y66256D01*
G02X172820I320J-1208D01*
G01X173111Y66179D01*
X173236Y66113D01*
G03X176764I1764J3345D01*
G01X176889Y66179D01*
X177180Y66256D01*
G02X177820I320J-1208D01*
G01X178111Y66179D01*
X178236Y66113D01*
G03X181764I1764J3345D01*
G01X181889Y66179D01*
X182180Y66256D01*
G02X182820I320J-1208D01*
G01X183111Y66179D01*
X183236Y66113D01*
G03X186764I1764J3345D01*
G01X186889Y66179D01*
X187180Y66256D01*
G02X187820I320J-1208D01*
G01X188111Y66179D01*
X188236Y66113D01*
G03X192923Y67058I1764J3344D01*
G01X193032Y67191D01*
X193494Y67514D01*
G02X193850Y67687I717J-1024D01*
G01X194400Y67853D01*
G02X194947Y67892I360J-1197D01*
G01X195153Y67861D01*
X195227Y67840D01*
G03X195898Y67748I672J2410D01*
G01X199100D01*
G03X199611Y67801I-1J2502D01*
G02X200187Y67786I256J-1223D01*
G02X200745Y67468I-319J-1208D01*
G03X202500Y66748I1756J1781D01*
G01X207500D01*
G03X209364Y67582I-1J2502D01*
G01X209541Y67780D01*
X210028Y67998D01*
X215500D01*
G03X217976Y69024I0J3501D01*
G01X222168Y73216D01*
G02X223936I884J-884D01*
G01X224278Y72874D01*
X224324Y71911D01*
X224017Y71538D01*
G03X223448Y69950I1933J-1588D01*
G01Y66350D01*
G03X223616Y65450I2502J1D01*
G01X223700Y65233D01*
Y64767D01*
X223616Y64550D01*
G03X223448Y63650I2334J-901D01*
G01Y60050D01*
G03X224018Y58461I2502J1D01*
G02X223911Y56758I-965J-794D01*
G03X223128Y54940I1719J-1818D01*
G01Y51280D01*
G03X224129Y49279I2501J0D01*
G01X224130D01*
X224365Y49102D01*
X224628Y48575D01*
Y45060D01*
G03X225630Y44058I1002J0D01*
G01X229370D01*
G03X230372Y45060I0J1002D01*
G01Y48575D01*
X230635Y49102D01*
X230871Y49279D01*
G03X231791Y50651I-1501J2001D01*
G01X231898Y51064D01*
X232573Y51586D01*
X233001D01*
G02X234251Y50336I0J-1250D01*
G01Y28039D01*
G02X233594Y26939I-1250J0D01*
G01X232040Y26102D01*
G02X231447Y25952I-594J1100D01*
G01X230565D01*
X230229Y26048D01*
X230079Y26142D01*
G03X222500Y28313I-7579J-12144D01*
G03X208187Y14000I0J-14313D01*
G01Y13999D01*
G03X210708Y5887I14313J0D01*
G01X210816Y5730D01*
X210872Y5550D01*
G02X210785Y4597I-1193J-372D01*
G01X209755Y2638D01*
G02X208649Y1970I-1106J582D01*
G01X195048D01*
X195026D01*
G37*
G36*
G01X208502Y76751D02*
Y80750D01*
G03X207500Y81752I-1002J0D01*
G01X202500D01*
G03X201777Y81444I0J-1003D01*
G01X201771Y81437D01*
X201769Y81435D01*
G02X201212Y81092I-911J856D01*
G01X199839Y80688D01*
X199505Y80681D01*
X199343Y80722D01*
G03X199100Y80752I-243J-972D01*
G01X195900D01*
G03X195464Y80652I0J-1002D01*
G01X195260Y80553D01*
X194809Y80512D01*
X192785Y81066D01*
X192418Y81332D01*
X192293Y81521D01*
G03X191946Y81946I-2294J-1519D01*
G01X188446Y85446D01*
G03X188387Y85503I-1941J-1950D01*
G02X188040Y86070I855J913D01*
G02X188019Y86157I1204J337D01*
G01X187865Y86884D01*
G02Y87400I1223J258D01*
G01X187929Y87702D01*
X187970Y87804D01*
G03X188103Y88208I-2968J1201D01*
G01X188150Y88393D01*
X188350Y88718D01*
X189569Y89776D01*
G02X190251Y90075I820J-943D01*
G03X192281Y92342I-251J2267D01*
G01Y97658D01*
G03X189479Y99878I-2281J-1D01*
G01X189180Y99808D01*
X188348Y100021D01*
G02X188049Y100140I309J1211D01*
G01X187639Y100369D01*
X187534Y100464D01*
G03X183236Y101002I-2534J-2806D01*
G01X183111Y100936D01*
X182820Y100859D01*
G02X182180I-320J1208D01*
G01X181889Y100936D01*
X181764Y101002D01*
G03X178236I-1764J-3344D01*
G01X178111Y100936D01*
X177820Y100859D01*
G02X177180I-320J1208D01*
G01X176889Y100936D01*
X176764Y101002D01*
G03X173236I-1764J-3344D01*
G01X173111Y100936D01*
X172820Y100859D01*
G02X172178Y100858I-323J1207D01*
G01X171889Y100935D01*
X171763Y101002D01*
G03X171318Y101201I-1763J-3345D01*
G01X171316D01*
X170973Y101329D01*
X170533Y101915D01*
X170506Y102281D01*
G02X170503Y102397I1247J90D01*
G02X170641Y102944I1250J-25D01*
G03X170752Y103400I-891J458D01*
G01Y106600D01*
G03X169750Y107602I-1002J0D01*
G01X166750D01*
G02X165750Y108102I0J1250D01*
G03X163750Y109102I-2000J-1500D01*
G01X163252D01*
G02X162002Y110352I0J1250D01*
G01Y115446D01*
G02X162368Y116330I1250J0D01*
G01X163536Y117498D01*
X163678D01*
X164613Y116563D01*
X164697Y116413D01*
G03X166878Y115136I2181J1224D01*
G01X184988D01*
G03X187490Y117638I0J2502D01*
G01Y122362D01*
G03X187285Y123352I-2502J-2D01*
G01X187133Y123705D01*
X187277Y124459D01*
X187549Y124731D01*
G02X189317I884J-884D01*
G01X218132Y95916D01*
G02X218498Y95032I-884J-884D01*
G01Y79968D01*
G02X218132Y79084I-1250J0D01*
G01X214416Y75368D01*
G02X213532Y75002I-884J884D01*
G01X210028D01*
X209541Y75220D01*
X209364Y75418D01*
G03X209002Y75751I-1866J-1666D01*
G02X208502Y76751I750J1000D01*
G37*
%LPC*%
G75*
G36*
G01X191991Y144941D02*
Y150059D01*
G02X192992Y151060I1001J0D01*
G01X199686D01*
G02X200687Y150059I0J-1001D01*
G01Y144941D01*
G02X199686Y143940I-1001J0D01*
G01X192992D01*
G02X191991Y144941I0J1001D01*
G37*
G36*
G01X112045Y80000D02*
G02X122955I5455J0D01*
G02X121743Y76572I-5454J0D01*
G03X121465Y75786I972J-786D01*
G01Y74214D01*
G03X121743Y73428I1250J0D01*
G02Y66572I-4242J-3428D01*
G03X121465Y65786I972J-786D01*
G01Y64214D01*
G03X121743Y63428I1250J0D01*
G02X122955Y60000I-4242J-3428D01*
G02X121017Y55830I-5455J0D01*
G01X120833Y55675D01*
X120607Y55251D01*
X120393Y53296D01*
G03X120643Y52402I1243J-134D01*
G01Y52401D01*
G02X121455Y50000I-3144J-2401D01*
G02X113545I-3955J0D01*
G02X114357Y52401I3956J0D01*
G01Y52402D01*
G03X114607Y53296I-993J760D01*
G01X114393Y55251D01*
X114167Y55675D01*
X113983Y55830D01*
G02X112045Y60000I3517J4170D01*
G02X113257Y63428I5454J0D01*
G03X113535Y64214I-972J786D01*
G01Y65786D01*
G03X113257Y66572I-1250J0D01*
G02Y73428I4242J3428D01*
G03X113535Y74214I-972J786D01*
G01Y75786D01*
G03X113257Y76572I-1250J0D01*
G02X112045Y80000I4242J3428D01*
G37*
%LPD*%
G75*
G54D10*
X13500Y14000D03*
X14000Y144000D03*
X222500Y14000D03*
X222000Y143500D03*
G54D20*
X124744Y19154D03*
X140492D03*
G54D11*
X19000Y29000D03*
X8000Y30500D03*
X11000Y101500D03*
X5500Y107000D03*
X21500Y98000D03*
X10000Y122902D03*
X4098Y117500D03*
X10000Y112098D03*
X5000Y131500D03*
X35000Y22000D03*
X34882Y40500D03*
X39500D03*
X47500Y54500D03*
X26000Y27000D03*
X47500Y83000D03*
Y73000D03*
Y63000D03*
X45000Y123000D03*
X53000Y133150D03*
X35000Y126000D03*
X44500Y129000D03*
X66378Y40378D03*
X76000Y54500D03*
X60000Y48000D03*
X77500Y70000D03*
X64500Y78500D03*
X67000Y59500D03*
X60500Y66500D03*
X77000Y84500D03*
X75650Y133150D03*
X74500Y142000D03*
X69500Y145000D03*
X65500Y142500D03*
X82000D03*
X103000Y18000D03*
X104000Y4500D03*
X96500Y32795D03*
X83000Y50500D03*
X106500Y49500D03*
X110000Y54000D03*
X86500Y79000D03*
X86000Y62500D03*
X107500Y77500D03*
X95000Y95000D03*
X90000Y102500D03*
X103000Y102000D03*
X106500Y94000D03*
X96000Y109000D03*
X93500Y133150D03*
X101650Y141850D03*
X86000Y142000D03*
X112000Y20500D03*
X125000Y26500D03*
X121000D03*
X137736Y30000D03*
X129000Y53500D03*
X124000D03*
X133000Y51000D03*
X127500Y49500D03*
X129000Y69000D03*
X133500Y78000D03*
X128500Y83000D03*
X127500Y90000D03*
X121500Y100000D03*
X118000Y130500D03*
X112000Y132500D03*
X135500Y112500D03*
X129000Y117000D03*
Y125000D03*
X134000Y129000D03*
X142000Y22500D03*
X162500Y19500D03*
X156500Y4000D03*
X161500D03*
X153500Y23500D03*
X147500Y49000D03*
X156500D03*
X158500Y54055D03*
X158000Y32000D03*
X148500Y34000D03*
X152500Y29000D03*
X141500Y31500D03*
X148300Y41000D03*
X156500D03*
X152500Y60500D03*
X165295Y59205D03*
X146500Y66000D03*
X148000Y73000D03*
X145500Y105000D03*
X142000Y108000D03*
X140000Y84000D03*
X156500Y87500D03*
X162000D03*
X149000Y88000D03*
X140000Y131500D03*
X148000Y132000D03*
X161000Y131500D03*
X165500Y113500D03*
X159000Y141850D03*
X145000Y147500D03*
X176500Y26000D03*
X168500Y24500D03*
X179000Y20000D03*
X171945Y54055D03*
X190000Y31000D03*
X183500Y62000D03*
X195000Y64000D03*
X180000Y57000D03*
X173000Y63000D03*
X193500Y95000D03*
X190000Y89000D03*
Y101500D03*
X172000Y105000D03*
X171500Y109000D03*
X194500Y108500D03*
X180000Y89000D03*
X185000D03*
X174000Y132000D03*
X185000Y126500D03*
Y113000D03*
X193500Y116000D03*
X192500Y137500D03*
X178500Y112000D03*
X198500Y5000D03*
X204500Y14000D03*
X223890Y46890D03*
X202500Y54500D03*
X202000Y43500D03*
X220500Y39500D03*
X200000Y29500D03*
X210500Y34000D03*
X211000Y71500D03*
X205000Y83000D03*
X210500Y78500D03*
X197500Y81500D03*
X214000Y57000D03*
X223110Y103110D03*
X202500Y100500D03*
X203500Y93500D03*
X214500Y85000D03*
X216500Y89000D03*
X209500Y99000D03*
X218500Y114000D03*
X198000Y131000D03*
X203000Y147500D03*
X196339Y152500D03*
X232000Y31500D03*
X227500Y42807D03*
X231500Y47000D03*
X230000Y116000D03*
G54D30*
G01X42756Y32795D02*
Y15744D01*
X50000Y8500D01*
G01X34882Y32795D02*
Y40500D01*
G01X39500D02*
X49000D01*
X50630Y38870D01*
Y32795D01*
G01X34882Y95000D02*
Y112618D01*
X30000Y117500D01*
G01X42756Y95000D02*
Y110594D01*
X40000Y113350D01*
Y117500D01*
G01X50000D02*
Y95630D01*
X50630Y95000D01*
G01X45000Y123000D02*
X49000D01*
X50000Y124000D01*
Y126850D01*
G01X30000D02*
Y117500D01*
G01X40000Y126850D02*
Y117500D01*
G01X50000Y150000D02*
X56500Y143500D01*
Y124000D01*
X50000Y117500D01*
G01X35000Y126000D02*
Y130500D01*
X32350Y133150D01*
X30000D01*
G01X44500Y129000D02*
Y132000D01*
X43350Y133150D01*
X40000D01*
G01X60000Y8500D02*
Y18000D01*
X58504Y19496D01*
Y32795D01*
G01X80000Y8500D02*
X74252Y14248D01*
Y32795D01*
G01X66378D02*
Y12122D01*
X70000Y8500D01*
G01X66378Y32795D02*
Y40378D01*
G01X58504Y95000D02*
Y111854D01*
X60000Y113350D01*
Y117500D01*
G01X66378Y95000D02*
Y113878D01*
X70000Y117500D01*
G01X74252Y95000D02*
Y111752D01*
X80000Y117500D01*
G01X70000D02*
Y132500D01*
X75500Y138000D01*
X144000D01*
X147000Y141000D01*
Y145000D01*
X150150Y148150D01*
X155000D01*
G01X80000Y126850D02*
Y117500D01*
G01X90000Y148000D02*
X80500D01*
X74500Y142000D01*
G01X90000Y8500D02*
X82126Y16374D01*
Y32795D01*
G01Y95000D02*
Y109626D01*
X90000Y117500D01*
G01Y126850D02*
Y117500D01*
G01X97500Y148150D02*
X105511D01*
X106161Y147500D01*
G01X97500Y148150D02*
X90150D01*
X90000Y148000D01*
G01X160000Y95000D02*
Y103000D01*
X162000Y105000D01*
G01X175933Y120000D02*
X162500D01*
X159500Y117000D01*
Y107500D01*
X162000Y105000D01*
G01X155000Y95000D02*
Y104500D01*
X155500Y105000D01*
G01X141067Y120000D02*
X154500D01*
X157500Y117000D01*
Y107000D01*
X155500Y105000D01*
G01X155000Y148150D02*
X163011D01*
X163661Y147500D01*
G01X180000Y95000D02*
Y89000D01*
G01X185000Y95000D02*
Y89000D01*
G01X177433Y120000D02*
X175933D01*
G01X227500Y53110D02*
Y61850D01*
G01Y103110D02*
X223110D01*
G01X227500Y88150D02*
Y96890D01*
G54D21*
X137736Y22500D03*
X135177D03*
X132618D03*
X130059D03*
X127500D03*
G54D12*
X20000Y117500D03*
X50000Y8500D03*
X40000D03*
X50000Y117500D03*
X40000D03*
X30000D03*
X50000Y150000D03*
X80000Y8500D03*
X70000D03*
X60000D03*
X80000Y117500D03*
X70000D03*
X60000D03*
Y150000D03*
X90000Y8500D03*
Y117500D03*
X167500Y10000D03*
X177500D03*
G54D31*
G01X10000Y112098D02*
Y117500D01*
G01D02*
Y122902D01*
G01X40000Y144598D02*
Y150000D01*
G01X34598D02*
X40000D01*
G01X117500Y44795D02*
Y50000D01*
G01X112295D02*
X117500D01*
G01D02*
X122705D01*
G01X133240Y147500D02*
X138839D01*
G01X147748Y56000D02*
X152500D01*
G01D02*
X157252D01*
G01X149500Y101148D02*
Y105000D01*
G01D02*
Y108852D01*
G01X138839Y142689D02*
Y147500D01*
G01D02*
Y152311D01*
G01X190740Y147500D02*
X196339D01*
G01Y142689D02*
Y147500D01*
G54D13*
X10000Y117500D03*
X30000Y8500D03*
X40000Y150000D03*
X187500Y10000D03*
G54D22*
X117500Y50000D03*
Y80000D03*
Y70000D03*
Y60000D03*
G54D32*
G01X30000Y8500D02*
Y14500D01*
G01X90000Y32795D02*
X96500D01*
G01X165295Y45000D02*
X160000D01*
X156000Y49000D01*
X152500D01*
G01D02*
X147500D01*
G01X159000Y141850D02*
X177150D01*
X222000Y97000D01*
Y82000D01*
G01X155000Y141850D02*
X159000D01*
G01X197500Y72000D02*
X204500D01*
X205000Y71500D01*
G01X211000D02*
X215500D01*
X222000Y78000D01*
Y82000D01*
G01X211000Y71500D02*
X205000D01*
G54D14*
X50630Y32795D03*
X42756D03*
X34882D03*
Y95000D03*
X42756D03*
X50630D03*
X82126Y32795D03*
X74252D03*
X66378D03*
X58504D03*
Y95000D03*
X66378D03*
X74252D03*
X82126D03*
X90000Y32795D03*
Y95000D03*
G54D23*
X141067Y120000D03*
X175933D03*
G54D33*
G01X165295Y45000D02*
X189705D01*
G01X152500Y41000D02*
X156000D01*
X161055Y35945D01*
X165295D01*
G01X152500Y41000D02*
X148300D01*
G54D24*
X165295Y35945D03*
Y45000D03*
Y54055D03*
G54D15*
X30000Y133150D03*
Y126850D03*
X40000Y133150D03*
Y126850D03*
X50000D03*
Y133150D03*
X80000D03*
Y126850D03*
X90000Y133150D03*
Y126850D03*
X97500Y148150D03*
Y141850D03*
X155000D03*
Y148150D03*
X227500Y61850D03*
Y68150D03*
Y81850D03*
Y88150D03*
G54D34*
G01X50000Y133150D02*
X53000D01*
G01X75650D02*
X80000D01*
G01X90000Y95000D02*
X95000D01*
G01X90000D02*
Y102500D01*
G01Y133150D02*
X93500D01*
G01X97500Y141850D02*
X101650D01*
G01X90000Y142000D02*
X86000D01*
G01X137736Y22500D02*
Y30000D01*
G01Y22500D02*
X142000D01*
G01X127500D02*
X125000D01*
G01X126000Y28500D02*
X127500Y27000D01*
Y22500D01*
G01X158000Y32000D02*
X156000Y34000D01*
X152500D01*
G01D02*
X148500D01*
G01X152500D02*
Y29000D01*
G01Y56000D02*
Y60500D01*
G01X165295Y54055D02*
X171945D01*
G01X165295D02*
X158500D01*
G01X165295D02*
Y59205D01*
G01X149500Y105000D02*
X145500D01*
G01X138839Y147500D02*
X145000D01*
G01X175000Y95000D02*
Y87000D01*
X178500Y83500D01*
X186500D01*
X190000Y80000D01*
Y72115D01*
G01Y95000D02*
X193500D01*
G01X190000D02*
Y89000D01*
G01Y95000D02*
Y101500D01*
G01X168000Y105000D02*
X172000D01*
G01X222000Y82000D02*
X222150Y81850D01*
X227500D01*
G01X205000Y78500D02*
Y83000D01*
G01Y78500D02*
X210500D01*
G01X197500Y78000D02*
Y81500D01*
G01X196339Y147500D02*
X203000D01*
G01X196339D02*
Y152500D01*
G01X227500Y46890D02*
X223890D01*
G01X227500Y68150D02*
Y81850D01*
G54D16*
X97087Y52480D03*
Y44606D03*
Y83976D03*
Y76102D03*
Y68228D03*
Y60354D03*
G54D25*
X152500Y49000D03*
Y41000D03*
Y34000D03*
Y56000D03*
X205000Y78500D03*
Y71500D03*
G54D35*
G01X30000Y140000D02*
X24500Y134500D01*
Y132000D01*
G01X197500Y72000D02*
X190115D01*
X190000Y72115D01*
G54D26*
X155000D03*
X160000D03*
X165000D03*
X155000Y95000D03*
X160000D03*
X165000D03*
X170000Y72115D03*
X175000D03*
X180000D03*
X185000D03*
X190000D03*
X170000Y95000D03*
X175000D03*
X180000D03*
X185000D03*
X190000D03*
G54D17*
X106161Y147500D03*
X138839D03*
X163661D03*
X196339D03*
G54D36*
G01X9843Y0D02*
X226378D01*
G03X236220Y9843I0J9842D01*
G01Y147638D01*
G03X226378Y157480I-9842J0D01*
G01X9843D01*
G03X0Y147638I-1J-9842D01*
G01Y9843D01*
G03X9843Y0I9843J0D01*
G01X170000Y95000D02*
Y91000D01*
X168000Y89000D01*
Y85500D01*
X164000Y81500D01*
X150000D01*
X139500Y71000D01*
Y40499D01*
X132618Y33617D01*
Y22500D01*
G01X130059D02*
Y34059D01*
X137378Y41378D01*
Y71879D01*
X149121Y83622D01*
X163621D01*
X166000Y86001D01*
Y89500D01*
X165000Y90500D01*
Y95000D01*
G54D27*
X149500Y105000D03*
X155500D03*
X162000D03*
X168000D03*
G54D18*
X90000Y148000D03*
Y142000D03*
X197500Y78000D03*
Y72000D03*
G54D28*
X189705Y45000D03*
G54D19*
X137343Y10689D03*
X127894D03*
X116870D03*
X148366D03*
G54D29*
X227500Y53110D03*
Y46890D03*
Y96890D03*
Y103110D03*
M02*
